<svg aria-hidden="true" style="position: absolute; width: 0; height: 0; overflow: hidden;" version="1.1" xmlns="http://www.w3.org/2000/svg" xmlns:xlink="http://www.w3.org/1999/xlink">
<defs>
<symbol id="icon-behance" viewBox="0 0 32 32">
<title>behance</title>
<path d="M23.58 16.496c-0.044-0.619-0.251-1.088-0.623-1.409-0.37-0.322-0.831-0.483-1.381-0.483-0.599 0-1.062 0.173-1.391 0.511-0.331 0.338-0.537 0.798-0.621 1.38h4.016zM25.921 16.264c0.061 0.407 0.088 0.998 0.077 1.77h-6.49c0.036 0.896 0.345 1.522 0.932 1.881 0.353 0.225 0.782 0.335 1.285 0.335 0.529 0 0.961-0.134 1.293-0.409 0.181-0.146 0.341-0.352 0.479-0.611h2.379c-0.063 0.529-0.349 1.066-0.863 1.611-0.798 0.866-1.916 1.301-3.352 1.301-1.186 0-2.232-0.367-3.14-1.097-0.905-0.733-1.359-1.922-1.359-3.571 0-1.546 0.408-2.73 1.227-3.554 0.822-0.826 1.882-1.236 3.189-1.236 0.775 0 1.473 0.138 2.096 0.417 0.621 0.279 1.134 0.717 1.539 1.32 0.365 0.531 0.601 1.144 0.71 1.844v0zM13.578 18.288c0-0.647-0.264-1.093-0.792-1.333-0.295-0.136-0.711-0.206-1.244-0.211h-2.671v3.316h2.63c0.54 0 0.958-0.070 1.26-0.218 0.544-0.271 0.817-0.788 0.817-1.554v0zM8.871 14.684h2.633c0.541 0 0.979-0.103 1.315-0.308s0.504-0.57 0.504-1.094c0-0.579-0.222-0.963-0.668-1.148-0.383-0.128-0.874-0.195-1.469-0.195h-2.316v2.745zM15.715 16.644c0.323 0.5 0.485 1.109 0.485 1.822 0 0.738-0.182 1.401-0.553 1.986-0.236 0.387-0.529 0.715-0.88 0.978-0.396 0.304-0.865 0.513-1.404 0.625-0.541 0.112-1.126 0.168-1.757 0.168h-5.604v-12.444h6.010c1.515 0.025 2.589 0.464 3.223 1.325 0.381 0.529 0.569 1.163 0.569 1.9 0 0.761-0.191 1.369-0.575 1.832-0.214 0.259-0.53 0.495-0.947 0.708 0.633 0.232 1.114 0.597 1.435 1.1v-0zM24.062 11.539h-5.011v-1.245h5.011v1.245z"></path>
</symbol>
<symbol id="icon-dribbble" viewBox="0 0 32 32">
<title>dribbble</title>
<path d="M20.416 22.417c-0.396-1.937-0.893-3.684-1.44-5.243 0.507-0.072 1.038-0.114 1.6-0.114h0.022c0.931 0 1.953 0.116 3.062 0.368-0.384 2.063-1.578 3.839-3.244 4.989zM16 23.802c-1.736 0-3.338-0.574-4.636-1.538 0.276-0.455 0.869-1.327 1.811-2.228 0.969-0.929 2.307-1.885 4.053-2.454 0.593 1.664 1.131 3.567 1.54 5.709-0.862 0.328-1.793 0.511-2.769 0.511v0zM8.198 16c0-0.037 0.002-0.074 0.004-0.113 0.222 0.008 0.507 0.015 0.851 0.015h0.002c1.569-0.010 4.307-0.142 7.082-1.017 0.151 0.331 0.3 0.675 0.449 1.033-1.853 0.62-3.313 1.607-4.393 2.59-1.038 0.947-1.74 1.884-2.151 2.51-1.147-1.359-1.844-3.106-1.844-5.019zM12.553 9.012c0.542 0.64 1.627 2.046 2.784 4.243-2.356 0.701-4.727 0.866-6.162 0.865-0.040 0-0.080 0-0.12-0h-0.002c-0.242 0-0.449-0.004-0.622-0.009 0.56-2.24 2.093-4.095 4.122-5.099v0zM16 8.199c1.84 0 3.529 0.643 4.864 1.714-1.022 1.224-2.373 2.111-3.831 2.737-1.024-1.982-2.015-3.399-2.691-4.266 0.536-0.119 1.089-0.186 1.658-0.186zM22.127 11.185c0.976 1.239 1.587 2.773 1.664 4.448-1.129-0.239-2.195-0.356-3.191-0.356v-0h-0.007c-0.8 0-1.551 0.073-2.26 0.198-0.173-0.422-0.347-0.827-0.522-1.215 1.578-0.692 3.091-1.677 4.316-3.075v0zM16 6c-5.524 0-10 4.477-10 10s4.476 9.999 10 9.999c5.522 0 10-4.477 10-9.999s-4.478-10-10-10z"></path>
</symbol>
<symbol id="icon-facebook" viewBox="0 0 32 32">
<title>facebook</title>
<path d="M20.75 8v3h-2c-0.552 0-1 0.447-1 1v2h3v3h-3v7h-3v-7h-2v-3h2v-2.5c0-1.934 1.567-3.5 3.5-3.5h2.5zM21.75 6h-16c-1.104 0-1.99 0.895-1.99 2l-0.010 16c0 1.103 0.896 2 2 2h16c1.104 0 2-0.896 2-2v-16c0-1.105-0.896-2-2-2z"></path>
</symbol>
<symbol id="icon-github" viewBox="0 0 32 32">
<title>github</title>
<path d="M16 4.375c6.627 0 11.999 5.336 11.999 11.919 0 5.264-3.434 9.73-8.199 11.308-0.608 0.117-0.824-0.255-0.824-0.572 0-0.393 0.014-1.676 0.014-3.271 0-1.112-0.384-1.837-0.814-2.207 2.672-0.295 5.479-1.303 5.479-5.881 0-1.301-0.466-2.364-1.235-3.199 0.125-0.3 0.536-1.512-0.118-3.154 0 0-1.006-0.32-3.297 1.222-0.959-0.264-1.986-0.397-3.006-0.401-1.020 0.005-2.046 0.137-3.003 0.401-2.293-1.542-3.301-1.222-3.301-1.222-0.652 1.642-0.241 2.854-0.116 3.154-0.768 0.835-1.236 1.898-1.236 3.199 0 4.567 2.802 5.589 5.467 5.89-0.343 0.297-0.654 0.824-0.762 1.594-0.685 0.305-2.422 0.831-3.492-0.991 0 0-0.634-1.144-1.839-1.228 0 0-1.171-0.015-0.082 0.725 0 0 0.786 0.366 1.332 1.744 0 0 0.704 2.127 4.043 1.406 0.005 0.996 0.016 1.935 0.016 2.219 0 0.315-0.22 0.684-0.82 0.573-4.768-1.576-8.206-6.044-8.206-11.31 0-6.583 5.373-11.919 12-11.919zM11.769 23.659c0.143-0.003 0.259 0.076 0.259 0.174 0.003 0.098-0.112 0.18-0.255 0.181-0.143 0.003-0.259-0.076-0.261-0.173 0-0.099 0.113-0.18 0.256-0.182zM12.943 23.678c0.017 0.096-0.082 0.194-0.224 0.22-0.139 0.025-0.268-0.034-0.286-0.129-0.017-0.098 0.084-0.197 0.223-0.222 0.142-0.024 0.269 0.033 0.287 0.131zM10.85 23.517c0.136 0.041 0.225 0.149 0.196 0.244-0.029 0.093-0.164 0.136-0.3 0.096-0.136-0.041-0.225-0.15-0.197-0.245s0.164-0.138 0.301-0.096zM10.087 23.071c0.104 0.096 0.136 0.233 0.066 0.305-0.066 0.072-0.206 0.053-0.308-0.046-0.105-0.096-0.134-0.233-0.068-0.305s0.207-0.052 0.311 0.046zM9.506 22.426c0.073 0.108 0.073 0.235-0.002 0.287-0.074 0.051-0.194 0.003-0.268-0.103s-0.074-0.233 0.002-0.284c0.075-0.051 0.193-0.005 0.268 0.1z"></path>
</symbol>
<symbol id="icon-instagram" viewBox="0 0 32 32">
<title>instagram</title>
<path d="M11.8 6h8.4c3.203 0 5.8 2.597 5.8 5.8v8.4c0 3.203-2.597 5.8-5.8 5.8h-8.4c-3.203 0-5.8-2.597-5.8-5.8v-8.4c0-3.203 2.597-5.8 5.8-5.8zM11.6 8c-1.988 0-3.6 1.612-3.6 3.6v8.8c0 1.988 1.612 3.6 3.6 3.6h8.8c1.988 0 3.6-1.612 3.6-3.6v-8.8c0-1.988-1.612-3.6-3.6-3.6h-8.8zM21.25 9.5c0.69 0 1.25 0.56 1.25 1.25s-0.56 1.25-1.25 1.25c-0.69 0-1.25-0.56-1.25-1.25s0.56-1.25 1.25-1.25zM16 11c2.761 0 5 2.239 5 5s-2.239 5-5 5c-2.761 0-5-2.239-5-5s2.239-5 5-5zM16 13c-1.657 0-3 1.343-3 3s1.343 3 3 3 3-1.343 3-3c0-1.657-1.343-3-3-3z"></path>
</symbol>
<symbol id="icon-linkedin" viewBox="0 0 32 32">
<title>linkedin</title>
<path d="M25 25h-4v-6.75c0-1.059-1.188-1.944-2.247-1.944s-1.753 0.886-1.753 1.944v6.75h-4v-12h4v2c0.662-1.071 2.356-1.763 3.525-1.763 2.471 0 4.475 2.041 4.475 4.513v7.25zM11 25h-4v-12h4v12zM9 7c1.105 0 2 0.895 2 2s-0.895 2-2 2c-1.105 0-2-0.895-2-2s0.895-2 2-2z"></path>
</symbol>
<symbol id="icon-medium" viewBox="0 0 32 32">
<title>medium</title>
<path d="M25.928 10.552l-6.039 9.855-4.317-7.045 3.437-5.585c0.158-0.257 0.486-0.375 0.77-0.292l6.149 3.068zM25.999 23.717c0 0.57-0.496 0.784-1.108 0.478l-4.708-2.354 5.816-9.491v11.367zM12.988 23.873c0 0.567-0.415 0.824-0.923 0.57l-5.511-2.75c-0.305-0.152-0.554-0.555-0.554-0.896v-12.721c0-0.454 0.332-0.659 0.738-0.456l5.966 2.978 0.283 0.462v12.813zM19.285 21.392l-5.286-2.643v-6l5.286 8.642z"></path>
</symbol>
<symbol id="icon-meetup" viewBox="0 0 32 32">
<title>meetup</title>
<path d="M16 6c-5.523 0-10 4.477-10 10s4.477 10 10 10c5.523 0 10-4.477 10-10s-4.477-10-10-10zM21.222 20.092c-0.125 0.135-0.323 0.238-0.524 0.291-0.544 0.142-1.187-0.005-1.694-0.228-1.614-0.71-1.258-2.509-0.55-3.75 0.213-0.373 0.422-0.748 0.633-1.125 0.166-0.297 0.526-0.797 0.385-1.16-0.148-0.381-0.542-0.383-0.802-0.062-0.25 0.309-0.46 0.752-0.632 1.111-0.187 0.391-1.123 2.448-1.123 2.448-0.173 0.335-0.464 0.817-0.78 1.083-0.236 0.199-0.667 0.257-0.95 0.051-0.215-0.157-0.258-0.365-0.215-0.607 0.195-1.118 1.891-3.719 0.721-3.902-0.448-0.070-0.57 0.428-0.708 0.747-0.229 0.526-0.402 1.073-0.647 1.593-0.281 0.596-0.496 1.218-0.644 1.859-0.118 0.512-0.27 1.165-0.854 1.321-1.597 0.427-2.082-0.627-2.082-0.627-0.261-0.829-0.013-1.576 0.238-2.373 0.194-0.616 0.31-1.252 0.555-1.851 0.438-1.069 0.875-3.3 2.455-3.157 0.403 0.036 0.854 0.24 1.203 0.443 0.317 0.185 0.558 0.284 0.926 0.085 0.359-0.194 0.523-0.553 0.95-0.676 0.458-0.132 0.759 0.063 1.102 0.339 0.48 0.386 0.532 0.212 0.928 0.11 0.329-0.084 0.71-0.123 1.070-0.062 1.853 0.317 0.673 2.683 0.231 3.634-0.288 0.618-1.661 3.105-0.444 3.439 0.367 0.101 0.84 0.055 1.146 0.318 0.311 0.267 0.28 0.52 0.105 0.709z"></path>
</symbol>
<symbol id="icon-twitter" viewBox="0 0 32 32">
<title>twitter</title>
<path d="M26.499 9.487c-0.773 0.343-1.603 0.574-2.474 0.678 0.889-0.533 1.573-1.377 1.894-2.384-0.832 0.494-1.754 0.852-2.736 1.045-0.786-0.837-1.905-1.36-3.145-1.36-2.379 0-4.308 1.929-4.308 4.308 0 0.338 0.038 0.666 0.112 0.982-3.581-0.18-6.755-1.895-8.88-4.501-0.371 0.636-0.583 1.376-0.583 2.166 0 1.495 0.761 2.813 1.917 3.586-0.706-0.022-1.371-0.216-1.951-0.539-0 0.018-0 0.036-0 0.054 0 2.087 1.485 3.829 3.456 4.224-0.361 0.099-0.742 0.151-1.135 0.151-0.278 0-0.547-0.027-0.811-0.077 0.548 1.711 2.139 2.957 4.025 2.992-1.474 1.156-3.332 1.844-5.351 1.844-0.348 0-0.691-0.020-1.028-0.060 1.907 1.222 4.171 1.936 6.604 1.936 7.924 0 12.258-6.565 12.258-12.258 0-0.187-0.004-0.373-0.013-0.557 0.842-0.607 1.572-1.366 2.15-2.23v-0z"></path>
</symbol>
<symbol id="icon-youtube" viewBox="0 0 32 32">
<title>youtube</title>
<path d="M13.522 19.135l-0.001-6.791 6.484 3.407-6.484 3.384zM27.76 11.167c0 0-0.235-1.665-0.954-2.399-0.913-0.963-1.936-0.968-2.404-1.023-3.358-0.245-8.396-0.245-8.396-0.245h-0.011c0 0-5.038 0-8.396 0.245-0.47 0.056-1.492 0.060-2.405 1.023-0.719 0.733-0.953 2.399-0.953 2.399s-0.24 1.956-0.24 3.912v1.834c0 1.956 0.24 3.912 0.24 3.912s0.234 1.665 0.953 2.399c0.913 0.963 2.113 0.933 2.647 1.033 1.92 0.186 8.16 0.243 8.16 0.243s5.043-0.008 8.401-0.252c0.469-0.057 1.492-0.061 2.404-1.024 0.719-0.733 0.954-2.399 0.954-2.399s0.24-1.955 0.24-3.912v-1.834c0-1.955-0.24-3.912-0.24-3.912v0 0z"></path>
</symbol>
<symbol id="icon-atolye15-logo" viewBox="0 0 32 32">
<title>atolye15-logo</title>
<path d="M6.887 8.282c0.062 0 0.122 0.024 0.166 0.069v0l1.568 1.572c0.084 0.084 0.092 0.217 0.019 0.31-1.287 1.655-1.967 3.64-1.967 5.74 0 5.155 4.184 9.35 9.327 9.35s9.327-4.194 9.327-9.35c0-2.099-0.68-4.084-1.967-5.74-0.073-0.093-0.065-0.226 0.019-0.31v0l1.568-1.572c0.044-0.044 0.104-0.069 0.166-0.069v0h0.012c0.067 0.004 0.128 0.035 0.17 0.087 1.744 2.138 2.704 4.838 2.704 7.604 0 6.632-5.383 12.027-12 12.027s-12-5.396-12-12.027c0-2.765 0.96-5.466 2.704-7.604 0.042-0.052 0.104-0.083 0.17-0.086v0zM17.139 4.001l0.011 0.001c2.366 0.225 4.593 1.144 6.438 2.655 0.051 0.042 0.082 0.104 0.086 0.17s-0.021 0.131-0.068 0.178v0l-1.567 1.57c-0.046 0.046-0.106 0.069-0.166 0.069-0.051 0-0.102-0.017-0.145-0.050-0.613-0.478-1.283-0.878-1.995-1.19v0 1.433c2.661 1.398 4.307 4.119 4.307 7.136 0 4.443-3.607 8.057-8.039 8.057s-8.039-3.614-8.039-8.057c0-1.728 0.539-3.376 1.558-4.766 0.041-0.055 0.104-0.090 0.172-0.095 0.006-0.001 0.012-0.001 0.017-0.001 0.062 0 0.122 0.025 0.167 0.069v0l1.551 1.555c0.079 0.078 0.092 0.2 0.032 0.293-0.568 0.878-0.868 1.896-0.868 2.944 0 2.99 2.427 5.423 5.41 5.423s5.41-2.433 5.41-5.423c0-2.57-1.821-4.805-4.329-5.314-0.11-0.022-0.189-0.119-0.189-0.231v0-6.192c0-0.067 0.028-0.13 0.077-0.174 0.044-0.040 0.1-0.061 0.158-0.061 0.007 0 0.015 0 0.022 0.001zM14.759 4.011c0.058 0 0.114 0.021 0.157 0.060 0.050 0.045 0.078 0.109 0.078 0.175v0 11.792c0 0.029-0.006 0.058-0.015 0.084 0.003 0.028 0.007 0.058 0.012 0.090 0.002 0.013 0.004 0.026 0.004 0.039v0 3.178c0 0.077-0.038 0.149-0.101 0.193-0.040 0.028-0.087 0.042-0.134 0.042-0.028 0-0.055-0.005-0.081-0.014-1.485-0.547-2.489-1.967-2.515-3.55-0.005-0.020-0.008-0.041-0.008-0.062v0-8.583c-0.67 0.304-1.302 0.686-1.881 1.139-0.043 0.034-0.094 0.050-0.145 0.050-0.061 0-0.121-0.023-0.166-0.069v0l-1.567-1.571c-0.047-0.047-0.072-0.111-0.069-0.178s0.034-0.128 0.086-0.17c1.814-1.485 4-2.399 6.322-2.644 0.008-0.001 0.016-0.001 0.025-0.001z"></path>
</symbol>
<symbol id="icon-checkmark" viewBox="0 0 32 32">
<title>checkmark</title>
<path d="M23.057 9.557c0.521-0.521 1.365-0.521 1.886 0 0.481 0.481 0.518 1.237 0.111 1.76l-0.111 0.126-11 11c-0.481 0.481-1.237 0.518-1.76 0.111l-0.126-0.111-5-5c-0.521-0.521-0.521-1.365 0-1.886 0.481-0.481 1.237-0.518 1.76-0.111l0.126 0.111 4.057 4.056 10.057-10.056z"></path>
</symbol>
<symbol id="icon-arrow-left" viewBox="0 0 32 32">
<title>arrow-left</title>
<path d="M17.178 3.155c0.601 0.601 0.647 1.546 0.139 2.2l-0.139 0.157-8.821 8.821h19.309c0.92 0 1.667 0.746 1.667 1.667 0 0.855-0.643 1.559-1.472 1.655l-0.194 0.011h-19.309l8.821 8.821c0.601 0.601 0.647 1.546 0.139 2.2l-0.139 0.157c-0.601 0.601-1.546 0.647-2.2 0.139l-0.157-0.139-11.774-11.785c-0.002-0.003-0.005-0.006-0.007-0.009l0.115 0.127c-0.062-0.062-0.118-0.128-0.169-0.197-0.014-0.020-0.028-0.040-0.042-0.060-0.017-0.025-0.032-0.050-0.047-0.075-0.013-0.023-0.026-0.046-0.039-0.070-0.016-0.029-0.030-0.059-0.043-0.088-0.008-0.019-0.017-0.038-0.025-0.057-0.013-0.031-0.024-0.063-0.035-0.094-0.008-0.023-0.015-0.046-0.022-0.069-0.008-0.029-0.016-0.058-0.023-0.087-0.006-0.023-0.011-0.047-0.015-0.071-0.006-0.033-0.011-0.065-0.015-0.098-0.003-0.026-0.006-0.052-0.008-0.079-0.002-0.028-0.004-0.056-0.005-0.084-0-0.016-0.001-0.033-0.001-0.049l0-0.034c0.001-0.029 0.002-0.058 0.004-0.087l-0.004 0.121c0-0.069 0.004-0.136 0.012-0.203 0.003-0.025 0.007-0.051 0.011-0.076 0.006-0.035 0.013-0.069 0.021-0.103 0.005-0.019 0.009-0.038 0.014-0.057 0.009-0.032 0.018-0.063 0.028-0.094 0.008-0.022 0.016-0.045 0.024-0.067 0.012-0.032 0.026-0.064 0.040-0.095 0.009-0.021 0.019-0.041 0.030-0.062 0.013-0.026 0.027-0.051 0.041-0.076 0.013-0.023 0.027-0.046 0.041-0.068 0.018-0.028 0.037-0.056 0.057-0.083 0.009-0.013 0.019-0.026 0.030-0.040l0.013-0.016c0.041-0.052 0.086-0.101 0.133-0.148l11.66-11.66c0.651-0.651 1.706-0.651 2.357 0z"></path>
</symbol>
<symbol id="icon-arrow-right" viewBox="0 0 32 32">
<title>arrow-right</title>
<path d="M17.021 3.016l0.157 0.139 11.666 11.666c0.040 0.040 0.077 0.081 0.113 0.125l-0.113-0.125c0.062 0.062 0.118 0.128 0.169 0.197 0.013 0.018 0.026 0.037 0.039 0.056 0.018 0.026 0.034 0.052 0.050 0.079 0.013 0.023 0.026 0.046 0.039 0.070 0.016 0.030 0.030 0.059 0.043 0.088 0.006 0.014 0.013 0.029 0.019 0.044 0.015 0.035 0.028 0.071 0.041 0.107 0.008 0.023 0.015 0.046 0.022 0.069 0.008 0.029 0.016 0.058 0.023 0.087 0.006 0.024 0.011 0.048 0.015 0.072 0.006 0.032 0.011 0.064 0.015 0.096 0.004 0.027 0.006 0.055 0.009 0.084 0.001 0.020 0.003 0.040 0.003 0.059 0.001 0.022 0.001 0.046 0.001 0.069l-0.001 0.052c-0.001 0.019-0.001 0.037-0.003 0.056l0.003-0.108c0 0.069-0.004 0.136-0.012 0.203-0.003 0.025-0.007 0.051-0.011 0.076-0.006 0.035-0.013 0.069-0.021 0.103-0.005 0.019-0.009 0.038-0.015 0.057-0.009 0.032-0.018 0.063-0.028 0.094-0.008 0.022-0.016 0.045-0.024 0.067-0.012 0.032-0.026 0.064-0.040 0.095-0.009 0.021-0.019 0.041-0.030 0.062-0.013 0.026-0.027 0.051-0.041 0.076-0.013 0.023-0.027 0.046-0.041 0.068-0.018 0.028-0.037 0.056-0.057 0.083-0.009 0.013-0.019 0.026-0.030 0.040l-0.013 0.016c-0.037 0.046-0.076 0.090-0.117 0.132l-0.009 0.009-11.666 11.666c-0.651 0.651-1.706 0.651-2.357 0-0.601-0.601-0.647-1.546-0.139-2.2l0.139-0.157 8.82-8.821h-19.308c-0.92 0-1.667-0.746-1.667-1.667 0-0.855 0.643-1.559 1.472-1.655l0.194-0.011h19.308l-8.82-8.821c-0.601-0.601-0.647-1.546-0.139-2.2l0.139-0.157c0.601-0.601 1.546-0.647 2.2-0.139z"></path>
</symbol>
<symbol id="icon-check-circle" viewBox="0 0 32 32">
<title>check-circle</title>
<path d="M16 0c8.837 0 16 7.163 16 16s-7.163 16-16 16c-8.837 0-16-7.163-16-16s7.163-16 16-16zM24.943 9.724c-0.521-0.521-1.365-0.521-1.886 0v0l-10.057 10.056-4.057-4.056-0.126-0.111c-0.523-0.407-1.279-0.37-1.76 0.111-0.521 0.521-0.521 1.365 0 1.886v0l5 5 0.126 0.111c0.523 0.407 1.279 0.37 1.76-0.111v0l11-11 0.111-0.126c0.407-0.523 0.37-1.279-0.111-1.76z"></path>
</symbol>
<symbol id="icon-close" viewBox="0 0 32 32">
<title>close</title>
<path d="M27.497 4.503c0.618 0.618 0.665 1.59 0.143 2.263l-0.143 0.162-9.073 9.073 9.073 9.073c0.669 0.669 0.669 1.755 0 2.424-0.618 0.618-1.59 0.665-2.263 0.143l-0.162-0.143-9.073-9.073-9.073 9.073c-0.669 0.669-1.755 0.669-2.424 0-0.618-0.618-0.665-1.59-0.143-2.263l0.143-0.162 9.073-9.073-9.073-9.073c-0.669-0.669-0.669-1.755 0-2.424 0.618-0.618 1.59-0.665 2.263-0.143l0.162 0.143 9.073 9.073 9.073-9.073c0.669-0.669 1.755-0.669 2.424 0z"></path>
</symbol>
<symbol id="icon-logo-mark" viewBox="0 0 32 32">
<title>logo-mark</title>
<path d="M24.378 11.039c0.919-0.868 1.536-0.073 2.425 0.826s1.713 1.559 0.793 2.427v0l-15.181 14.742c-0.415 0.403-1.075 0.402-1.489-0.003v0l-6.491-6.348c-0.904-0.884-0.257-1.589 0.648-2.472s1.725-1.609 2.628-0.725v0l3.269 3.197c0.415 0.405 1.077 0.405 1.492-0v0zM24.378 3.039c0.919-0.868 1.536-0.073 2.425 0.826s1.713 1.559 0.793 2.427v0l-15.181 14.742c-0.415 0.403-1.075 0.402-1.489-0.003v0l-6.491-6.348c-0.904-0.884-0.257-1.589 0.648-2.472s1.725-1.609 2.628-0.725v0l3.269 3.197c0.415 0.405 1.077 0.405 1.492-0v0z"></path>
</symbol>
<symbol id="icon-menu" viewBox="0 0 32 32">
<title>menu</title>
<path d="M28 22.666c0.736 0 1.333 0.597 1.333 1.333 0 0.684-0.515 1.247-1.178 1.324l-0.155 0.009h-23.999c-0.736 0-1.333-0.597-1.333-1.333 0-0.684 0.515-1.247 1.178-1.324l0.155-0.009h23.999zM28 14.667c0.736 0 1.333 0.597 1.333 1.333 0 0.684-0.515 1.247-1.178 1.324l-0.155 0.009h-23.999c-0.736 0-1.333-0.597-1.333-1.333 0-0.684 0.515-1.247 1.178-1.324l0.155-0.009h23.999zM28 6.667c0.736 0 1.333 0.597 1.333 1.333 0 0.684-0.515 1.247-1.178 1.324l-0.155 0.009h-23.999c-0.736 0-1.333-0.597-1.333-1.333 0-0.684 0.515-1.247 1.178-1.324l0.155-0.009h23.999z"></path>
</symbol>
<symbol id="icon-search" viewBox="0 0 32 32">
<title>search</title>
<path d="M14.667 2.667c6.627 0 12 5.372 12 12 0 2.833-0.982 5.437-2.623 7.489l4.9 4.901c0.521 0.521 0.521 1.365 0 1.886-0.481 0.481-1.237 0.518-1.76 0.111l-0.126-0.111-4.901-4.9c-2.053 1.642-4.656 2.623-7.489 2.623-6.627 0-12-5.372-12-12s5.372-12 12-12zM14.667 5.334c-5.154 0-9.333 4.179-9.333 9.333s4.179 9.333 9.333 9.333c2.521 0 4.808-0.999 6.487-2.623 0.031-0.043 0.066-0.082 0.103-0.12l0.12-0.103c1.624-1.679 2.623-3.966 2.623-6.487 0-5.154-4.179-9.333-9.333-9.333z"></path>
</symbol>
</defs>
</svg>
