<svg xmlns="http://www.w3.org/2000/svg" viewBox="0 0 112 16"><defs/><g fill="none" fill-rule="nonzero"><path fill="#FFF" d="M80.617 12.536c-2.924.013-2.924-2.36-2.924-2.737L77.688.908l1.783-.283v8.836c0 .215 0 1.572 1.146 1.576v1.5zm-7.231-1.453c.547 0 .953-.032 1.237-.086V9.184a4.223 4.223 0 00-1.05-.133c-.2 0-.4.015-.598.046a1.8 1.8 0 00-.542.16.97.97 0 00-.388.328c-.1.141-.146.223-.146.437 0 .419.146.66.41.82.265.16.626.241 1.077.241zm-.155-6.467c.588 0 1.086.073 1.487.219.401.145.725.35.963.61.242.264.406.614.506.988.105.374.155.784.155 1.234v4.582c-.413.082-.828.152-1.245.21-.556.082-1.182.123-1.876.123a5.73 5.73 0 01-1.263-.132 2.667 2.667 0 01-.98-.424 2.057 2.057 0 01-.635-.756c-.15-.31-.228-.747-.228-1.202 0-.437.086-.715.256-1.017.17-.297.41-.55.698-.737a3.003 3.003 0 011.021-.41c.4-.083.806-.124 1.213-.123.443 0 .885.055 1.315.16v-.292c0-.205-.023-.4-.073-.583a1.253 1.253 0 00-.256-.487 1.19 1.19 0 00-.483-.328 2.11 2.11 0 00-.762-.137c-.41 0-.785.05-1.127.11a5.157 5.157 0 00-.84.204l-.214-1.461c.224-.078.556-.156.986-.233a7.32 7.32 0 011.382-.119v.001zm35.228 6.417c.548 0 .953-.032 1.236-.086V9.133a4.231 4.231 0 00-1.05-.132c-.196 0-.396.014-.597.046a1.8 1.8 0 00-.543.16.973.973 0 00-.388.327.62.62 0 00-.145.437c0 .419.145.661.41.82.27.164.625.242 1.077.242zm-.151-6.462c.589 0 1.086.072 1.487.218.402.146.726.35.963.61s.406.615.506.988c.108.403.16.818.155 1.235v4.582c-.273.059-.689.127-1.245.21-.556.081-1.181.122-1.875.122a5.69 5.69 0 01-1.264-.132 2.667 2.667 0 01-.98-.423 2.057 2.057 0 01-.634-.756c-.151-.31-.229-.747-.229-1.203 0-.437.087-.715.256-1.016.173-.3.405-.547.698-.738.297-.19.633-.327 1.021-.41a5.869 5.869 0 011.834-.086c.22.023.448.064.694.123v-.291a2.2 2.2 0 00-.073-.583 1.249 1.249 0 00-.256-.488 1.19 1.19 0 00-.483-.328 2.11 2.11 0 00-.762-.136c-.41 0-.784.05-1.126.109a5.167 5.167 0 00-.84.205l-.214-1.462c.223-.078.556-.155.985-.232.456-.08.919-.12 1.382-.118zm-5.356-.848a1.084 1.084 0 01-1.085-1.08c0-.596.483-1.08 1.085-1.08.603 0 1.087.484 1.087 1.08 0 .597-.489 1.08-1.087 1.08zm.899 8.814h-1.793v-7.69l1.793-.282V12.537zm-3.143 0c-2.924.013-2.924-2.36-2.924-2.738L97.779.908l1.784-.283v8.836c0 .215 0 1.572 1.145 1.576v1.499zM94.909 8.6c0-.77-.168-1.412-.497-1.858-.329-.452-.789-.674-1.378-.674-.588 0-1.05.222-1.377.674-.328.45-.488 1.088-.488 1.858 0 .779.164 1.302.493 1.754.328.455.789.678 1.377.678s1.05-.228 1.378-.679c.328-.455.492-.973.492-1.753zm1.825-.004a4.32 4.32 0 01-.265 1.553 3.68 3.68 0 01-.752 1.27 3.324 3.324 0 01-1.168.816c-.456.19-1.159.3-1.51.3-.352-.004-1.049-.105-1.501-.3a3.397 3.397 0 01-1.163-.815 3.756 3.756 0 01-.758-1.271 4.23 4.23 0 01-.273-1.553c0-.602.082-1.18.265-1.672.168-.468.429-.897.766-1.262a3.422 3.422 0 011.167-.81c.453-.192.95-.282 1.488-.282.539 0 1.035.094 1.491.282.445.18.844.457 1.169.81.333.367.59.796.757 1.262.191.492.287 1.07.287 1.672zm-13.425 0c0 .746.164 1.575.492 1.921.328.347.753.52 1.273.52.283 0 .552-.041.803-.119.251-.077.451-.168.611-.278V6.22a6.984 6.984 0 00-1.177-.15 1.78 1.78 0 00-1.487.669c-.342.424-.515 1.166-.515 1.858zm4.958 3.516c0 1.216-.31 2.104-.936 2.669-.624.564-1.578.847-2.864.847-.47 0-1.446-.092-2.226-.264l.287-1.412c.653.136 1.515.173 1.967.173.716 0 1.226-.146 1.532-.437.306-.292.456-.724.456-1.299v-.291a5.38 5.38 0 01-.698.264 3.45 3.45 0 01-.994.132c-.493 0-.94-.077-1.346-.232a2.804 2.804 0 01-1.044-.684 3.109 3.109 0 01-.676-1.129c-.16-.451-.242-1.257-.242-1.849 0-.556.087-1.253.256-1.718.174-.464.42-.865.753-1.197.329-.332.73-.587 1.2-.775a4.404 4.404 0 011.619-.304c.58 0 1.113.072 1.633.16.52.086.963.176 1.323.276v7.07zM4.648 4.45v1.085a2.982 2.982 0 00-1.617-.447c-.39 0-.696.087-.92.261a.827.827 0 00-.334.687c0 .283.109.51.329.68.22.17.557.354 1.01.553.299.128.53.237.697.33.167.092.358.221.575.388.216.167.375.365.479.596.102.23.153.494.153.792 0 .631-.223 1.127-.67 1.49-.446.36-1.024.542-1.733.542-.787 0-1.44-.153-1.958-.457V9.812c.56.419 1.21.628 1.947.628.39 0 .699-.09.925-.271.227-.181.34-.431.34-.75a.799.799 0 00-.201-.527c-.135-.16-.28-.28-.437-.361-.156-.082-.39-.194-.702-.336l-.388-.18a9.113 9.113 0 01-.366-.192 2.85 2.85 0 01-.378-.234 4.613 4.613 0 01-.304-.266 1.157 1.157 0 01-.26-.34 2.95 2.95 0 01-.149-.399 1.702 1.702 0 01-.07-.495c0-.61.223-1.092.666-1.446.443-.355 1.015-.532 1.717-.532.646 0 1.196.113 1.649.34zM9.627 8.25v-.192c-.015-.404-.125-.725-.33-.962-.206-.238-.5-.357-.883-.357-.355 0-.66.13-.915.389-.255.258-.415.632-.478 1.122h2.606zm.67 1.861v.936c-.398.227-.922.34-1.575.34-.837 0-1.503-.251-2-.755-.496-.503-.744-1.162-.744-1.978 0-.865.227-1.544.68-2.037.454-.493 1.033-.74 1.734-.74.689 0 1.235.215 1.639.644.404.43.606 1.048.606 1.856 0 .22-.022.45-.064.692H7.031c.071.468.27.826.596 1.074.326.248.737.372 1.233.372.575 0 1.053-.135 1.437-.404zM14.7 8.93h-.808c-.397 0-.697.077-.9.233a.722.722 0 00-.302.596c0 .248.078.443.233.585.157.142.384.213.682.213.34 0 .608-.094.802-.282.196-.188.294-.434.294-.739v-.607l-.001.001zm-2.712-1.703v-1.01c.418-.241.971-.362 1.66-.362 1.41 0 2.116.684 2.116 2.054v3.424h-1.032v-.638c-.277.454-.762.68-1.457.68-.511 0-.92-.146-1.229-.44-.308-.295-.463-.669-.463-1.123 0-.517.196-.92.586-1.207.39-.287.936-.431 1.638-.431h.893v-.307c0-.37-.089-.648-.266-.836-.177-.188-.471-.282-.883-.282a2.713 2.713 0 00-1.563.479zm6.222-1.286v.946c.263-.666.734-1 1.415-1 .099 0 .209.011.33.032V6.94a1.257 1.257 0 00-.5-.095c-.362 0-.66.16-.894.478-.234.32-.351.699-.351 1.138v2.872h-1.042V5.94h1.042zm3.34 2.722c.015.547.181.995.5 1.346.32.351.767.527 1.34.527.426 0 .823-.117 1.192-.351v.936c-.347.212-.79.319-1.33.319-.843 0-1.517-.267-2.02-.798-.504-.532-.756-1.195-.756-1.99 0-.773.253-1.433.76-1.983s1.193-.824 2.059-.824c.468 0 .897.099 1.286.298V7.1a2.161 2.161 0 00-1.18-.33c-.56 0-1.008.177-1.346.532-.336.355-.505.809-.505 1.361zm5.277-4.85v3.053c.305-.667.862-1 1.67-1 .524 0 .946.163 1.266.49.319.326.478.78.478 1.36v3.617H29.2V7.93c0-.368-.094-.653-.282-.856-.188-.202-.434-.303-.74-.303-.354 0-.668.135-.94.404-.274.27-.41.681-.41 1.234v2.925h-1.042v-7.52h1.042zm9.977 6.68c.397 0 .73-.168 1-.505.27-.337.404-.771.404-1.303 0-.61-.135-1.08-.404-1.41a1.273 1.273 0 00-1.032-.494c-.369 0-.7.149-.994.446-.295.298-.441.756-.441 1.372 0 .639.141 1.114.425 1.426.283.312.63.468 1.042.468zm-1.468-6.68V6.76c.383-.596.925-.894 1.627-.894.681 0 1.238.255 1.67.766.433.51.649 1.187.649 2.031 0 .759-.206 1.406-.617 1.942-.411.535-.975.803-1.691.803-.717 0-1.263-.298-1.638-.893v.818h-1.053v-7.52h1.053zm6.605 7.403l-2.148-5.275h1.159l.67 1.754.84 2.277c.064-.213.32-.972.767-2.277l.606-1.754h1.106l-1.946 5.244c-.518 1.382-1.309 2.073-2.373 2.073a1.947 1.947 0 01-.49-.053v-.893c.114.028.235.043.363.043.688 0 1.17-.38 1.446-1.139z"/><path fill="#5468FF" d="M52.659.625H63.72c1.092.001 1.977.886 1.978 1.978v11.064a1.978 1.978 0 01-1.978 1.976H52.66a1.978 1.978 0 01-1.978-1.976V2.598A1.974 1.974 0 0152.66.625z"/><path fill="#FFF" d="M59.755 3.978v-.515a.652.652 0 00-.652-.651h-1.52a.652.652 0 00-.652.651v.529c0 .059.054.1.114.087a4.822 4.822 0 012.6-.014.088.088 0 00.11-.087m-4.166.673l-.26-.259a.651.651 0 00-.921 0l-.31.31a.649.649 0 000 .92l.255.255c.042.041.1.032.137-.009.15-.205.315-.4.497-.583.188-.186.379-.35.589-.5.045-.028.05-.092.013-.134m2.774 1.636v2.227c0 .064.069.11.128.078l1.98-1.025c.045-.022.059-.078.036-.122A2.463 2.463 0 0058.454 6.2c-.045 0-.09.036-.09.086m0 5.366a2.993 2.993 0 01-2.994-2.988 2.992 2.992 0 012.993-2.988 2.992 2.992 0 012.993 2.988 2.99 2.99 0 01-2.993 2.988m0-7.234a4.243 4.243 0 103.003 7.243 4.247 4.247 0 000-6.003 4.239 4.239 0 00-3.003-1.239"/></g></svg>