<svg xmlns="http://www.w3.org/2000/svg" viewBox="0 0 829 247"><path fill="#e7efff" fill-rule="evenodd" d="M29.665,44.0063 C30.306,44.0063 30.92,44.2583 31.374,44.7133 L31.374,44.7133 L47.489,60.8693 C48.35,61.7293 48.437,63.1003 47.687,64.0603 C34.463,81.0733 27.469,101.4743 27.469,123.0513 C27.469,176.0363 70.474,219.1453 123.334,219.1453 C176.196,219.1453 219.197,176.0363 219.197,123.0513 C219.197,101.4743 212.203,81.0793 198.976,64.0603 C198.229,63.1033 198.31,61.7323 199.174,60.8723 L199.174,60.8723 L215.289,44.7173 C215.745,44.2613 216.357,44.0063 216.999,44.0063 L216.999,44.0063 L217.122,44.0063 C217.806,44.0453 218.442,44.3663 218.874,44.8973 C236.801,66.8743 246.666,94.6263 246.666,123.0513 C246.666,191.2113 191.336,246.6653 123.334,246.6653 C55.33,246.6653 -3.55271368e-13,191.2113 -3.55271368e-13,123.0513 C-3.55271368e-13,94.6323 9.869,66.8743 27.79,44.8943 C28.224,44.3633 28.857,44.0423 29.541,44.0063 L29.541,44.0063 Z M134.9245,2.84217094e-14 C134.9995,2.84217094e-14 135.0805,0.003 135.1515,0.012 C159.4715,2.327 182.3535,11.766 201.3185,27.297 C201.8435,27.728 202.1645,28.365 202.1975,29.049 C202.2325,29.729 201.9785,30.395 201.4985,30.875 L201.4985,30.875 L185.3945,47.015 C184.9245,47.485 184.3065,47.729 183.6855,47.729 C183.1605,47.729 182.6325,47.557 182.1915,47.213 C175.8955,42.297 169.0095,38.191 161.6905,34.984 L161.6905,34.984 L161.6905,49.709 C189.0365,64.078 205.9585,92.042 205.9585,123.052 C205.9585,168.718 168.8915,205.864 123.3345,205.864 C77.7735,205.864 40.7075,168.718 40.7075,123.052 C40.7075,105.296 46.2445,88.355 56.7245,74.069 C57.1475,73.5 57.7925,73.142 58.4945,73.091 C58.5545,73.085 58.6135,73.083 58.6735,73.083 C59.3155,73.083 59.9315,73.337 60.3875,73.796 L60.3875,73.796 L76.3315,89.78 C77.1415,90.584 77.2735,91.84 76.6555,92.795 C70.8155,101.816 67.7345,112.278 67.7345,123.052 C67.7345,153.78 92.6745,178.786 123.3345,178.786 C153.9945,178.786 178.9345,153.78 178.9345,123.052 C178.9345,96.642 160.2215,73.671 134.4445,68.433 C133.3165,68.205 132.5065,67.213 132.5065,66.063 L132.5065,66.063 L132.5065,2.418 C132.5065,1.733 132.7915,1.086 133.2985,0.627 C133.7485,0.219 134.3245,2.84217094e-14 134.9245,2.84217094e-14 Z M474.6019,76.95 C485.5909,76.95 493.3099,78.633 497.7579,81.962 C502.0329,85.232 505.1099,89.866 506.9439,95.871 C509.0359,103.203 510.0699,111.726 510.0699,121.407 C510.0699,131.08 509.5639,138.679 508.5129,144.234 C507.4659,149.78 506.0289,154.243 504.2369,157.573 C502.4159,160.9 499.9519,163.481 496.8089,165.272 C493.6689,167.064 490.4229,168.249 487.0509,168.855 C483.6909,169.423 479.7399,169.713 475.1769,169.713 C470.5919,169.713 466.8769,169.543 464.0309,169.204 C461.1829,168.879 458.2969,168.186 455.3459,167.159 C452.4129,166.105 450.0139,164.558 448.1799,162.511 C446.3289,160.465 444.6459,157.779 443.1429,154.439 C441.6339,151.097 440.5519,146.907 439.8719,141.876 C439.1929,136.817 438.8619,130.823 438.8619,123.913 C438.8619,116.979 439.2469,110.903 440.0099,105.673 C440.7629,100.481 441.9409,96.161 443.5339,92.733 C445.1389,89.309 446.8589,86.525 448.7509,84.408 C450.6389,82.275 453.0429,80.666 455.9789,79.59 C460.7749,77.836 466.9729,76.95 474.6019,76.95 Z M824.4058,77.2716 L824.4058,95.9226 L787.4228,95.9226 L786.6778,113.0746 C789.5098,111.0656 793.9218,110.0616 799.8848,110.0616 C801.8988,110.0616 804.2968,110.1316 807.0698,110.3036 C814.0898,110.7126 819.3678,113.0366 822.8428,117.2496 C826.3168,121.4756 828.0548,127.0026 828.0548,133.8446 L828.0548,133.8446 L828.0548,146.2496 C828.0548,150.3266 827.3388,153.9346 825.8658,157.0706 C824.3918,160.1806 822.4488,162.5896 820.0038,164.2476 C815.3078,167.6726 809.9048,169.3926 803.7908,169.3926 C795.1458,169.3926 788.4138,169.2216 783.5918,168.8816 C778.7578,168.5576 772.4108,167.7236 764.5318,166.3896 L764.5318,166.3896 L764.5318,150.1226 L798.9888,150.1226 C802.8558,150.1226 805.3078,149.1916 806.3058,147.3626 C807.0698,145.9246 807.4288,144.2286 807.4288,142.2306 L807.4288,142.2306 L807.4288,135.8426 C807.4288,133.4216 806.9298,131.5076 805.9128,130.0916 C804.9148,128.6766 802.9908,127.9606 800.1378,127.9606 L800.1378,127.9606 L791.0768,127.9606 C786.5558,127.9606 784.2948,130.1656 784.2948,134.5926 L784.2948,134.5926 L764.6448,134.5926 L767.4158,77.2716 L824.4058,77.2716 Z M666.6319,77.3389 C666.9029,77.3389 667.1459,77.3389 667.4019,77.3399 L667.4019,77.3399 L707.1489,79.3379 L707.1489,86.5979 L667.4019,86.5979 C665.3819,86.5979 663.8559,86.9869 662.7959,87.7749 C661.7569,88.5839 661.1739,89.3819 661.0349,90.1679 C660.9149,90.9669 660.8429,92.0929 660.8429,93.6079 L660.8429,93.6079 L660.8429,118.6249 L702.1299,119.8719 L702.1299,127.2889 L660.8429,128.5109 L660.8429,153.5549 C660.8429,155.6609 661.3199,157.1969 662.2369,158.1779 C663.1749,159.1829 664.0289,159.7519 664.8839,159.8819 C665.7199,160.0059 666.9829,160.0659 668.6529,160.0659 L668.6529,160.0659 L707.1499,160.0659 L707.1499,167.2059 L668.6529,169.3259 L666.7769,169.3259 C656.6239,169.3259 651.5389,164.0849 651.5389,153.5549 L651.5389,153.5549 L651.5389,93.6059 C651.5389,87.8319 652.9879,83.6939 655.8909,81.1399 C658.7699,78.5979 662.3529,77.3389 666.6319,77.3389 Z M341.494,77.5274 L373.843,169.1374 L362.764,169.1374 L354.841,143.6124 L318.103,143.6124 L309.802,169.1374 L298.344,169.1374 L332.189,77.5274 L341.494,77.5274 Z M432.147,77.527 L432.147,86.786 L404.465,86.786 L404.465,169.137 L395.153,169.137 L395.153,86.786 L368.222,86.786 L368.222,77.527 L432.147,77.527 Z M532.5119,77.5275 L532.5119,153.3655 C532.5119,156.5375 533.4109,158.4735 535.1729,159.1295 C536.5079,159.6505 538.2269,159.8795 540.3249,159.8795 L540.3249,159.8795 L578.8229,159.8795 L578.8229,169.1365 L540.3249,169.1365 C535.5339,169.1365 531.6879,168.3155 528.7539,166.6445 C525.0429,164.5515 523.1989,160.1335 523.1989,153.3655 L523.1989,153.3655 L523.1989,77.5275 L532.5119,77.5275 Z M582.598,77.527 L606.376,125.589 L632.679,77.527 L642.875,77.527 L611.039,136.591 L611.039,169.137 L601.727,169.137 L601.727,136.591 L572.403,77.527 L582.598,77.527 Z M753.356,77.527 L753.356,169.137 L732.724,169.137 L732.724,97.424 L716.228,101.056 L716.228,87.791 L732.843,77.527 L753.356,77.527 Z M110.5778,0.1144 C111.1698,0.1144 111.7508,0.3304 112.1948,0.7314 C112.7048,1.1934 112.9958,1.8474 112.9958,2.5314 L112.9958,2.5314 L112.9958,123.7234 C112.9958,124.0234 112.9388,124.3184 112.8368,124.5874 C112.8668,124.8774 112.9088,125.1864 112.9598,125.5084 C112.9808,125.6404 112.9958,125.7784 112.9958,125.9134 L112.9958,125.9134 L112.9958,158.5734 C112.9958,159.3604 112.6088,160.1024 111.9578,160.5554 C111.5468,160.8444 111.0648,160.9914 110.5778,160.9914 C110.2938,160.9914 110.0118,160.9424 109.7418,160.8444 C94.4808,155.2254 84.1598,140.6254 83.8928,124.3634 C83.8398,124.1624 83.8148,123.9464 83.8148,123.7234 L83.8148,123.7234 L83.8148,35.5084 C76.9278,38.6344 70.4378,42.5634 64.4778,47.2184 C64.0368,47.5644 63.5088,47.7314 62.9868,47.7314 C62.3628,47.7314 61.7458,47.4914 61.2778,47.0204 L61.2778,47.0204 L45.1708,30.8744 C44.6848,30.3954 44.4298,29.7294 44.4658,29.0484 C44.4988,28.3654 44.8168,27.7284 45.3448,27.2964 C63.9888,12.0334 86.4578,2.6354 110.3228,0.1254 C110.4068,0.1144 110.4918,0.1144 110.5778,0.1144 Z M479.1229,86.262 L479.1229,111.486 L469.8079,111.486 L469.8079,86.271 C469.6209,86.275 469.4219,86.277 469.2579,86.283 C468.0369,86.32 466.4939,86.442 464.5989,86.658 C462.7179,86.863 461.2749,87.218 460.2659,87.662 C459.2539,88.122 458.0769,88.802 456.7469,89.648 C455.3829,90.531 454.3729,91.598 453.6449,92.869 C452.9479,94.105 452.1729,95.677 451.3199,97.54 C450.4779,99.43 449.8839,101.619 449.4919,104.124 C449.1309,106.607 448.8129,109.557 448.5549,112.889 C448.2949,116.23 448.1809,120.936 448.1809,127.035 C448.1809,133.111 448.5969,138.547 449.3709,143.3 C450.1759,148.06 451.7289,151.724 454.0179,154.319 C456.3439,156.908 459.0069,158.563 462.0259,159.327 C465.0429,160.066 468.9389,160.442 473.7299,160.442 C478.5099,160.442 482.2479,160.188 484.9309,159.629 C487.5929,159.083 490.0319,158.092 492.2219,156.629 C494.3979,155.174 496.0809,153.06 497.2589,150.323 C499.5979,144.802 500.7629,136.041 500.7639,124.021 C500.7639,110.914 499.7679,102.126 497.7589,97.599 C496.9059,95.688 496.1539,94.104 495.4819,92.869 C494.8139,91.598 493.8159,90.532 492.4809,89.648 C491.1159,88.803 489.9739,88.122 488.9999,87.662 C488.0509,87.218 486.6249,86.863 484.7259,86.658 C482.8509,86.442 481.2869,86.32 480.0139,86.283 C479.7449,86.275 479.4379,86.269 479.1229,86.262 L479.1229,86.262 Z M336.733,91.6514 L321.495,134.3524 L351.558,134.3524 L336.733,91.6514 Z"/></svg>