<svg xmlns="http://www.w3.org/2000/svg" viewBox="0 0 26 26"><defs/><g fill="none" fill-rule="evenodd"><path fill="#101013" d="M-760-1561H680v4256H-760z"/><g transform="translate(-32 -75)"><rect width="561" height="270" fill="#181C27" rx="4"/><g transform="translate(32 75)"><rect width="26" height="26" fill="#FE2D5B" rx="2"/><path fill="#E7EFFF" d="M17.713 10.279c.517-.485.864-.04 1.364.46.5.503.964.872.447 1.356l-8.403 8.1a.8.8 0 01-1.112-.002l-3.514-3.411c-.509-.494-.145-.888.364-1.381s.97-.899 1.479-.405l1.7 1.651a.8.8 0 001.115 0zm0-4.57c.517-.485.864-.04 1.364.461.5.502.964.87.447 1.356l-8.403 8.1a.8.8 0 01-1.112-.003l-3.514-3.411c-.509-.494-.145-.888.364-1.38l.09-.087c.473-.451.91-.783 1.389-.319l1.7 1.652a.8.8 0 001.115 0z"/></g></g></g></svg>