<svg xmlns="http://www.w3.org/2000/svg" viewBox="0 0 115 20"><defs/><g fill="none" fill-rule="evenodd"><path fill="#FF0C6F" d="M18.2841962,8.28082219 C18.9738533,7.62956327 19.4365304,8.22638509 20.1031189,8.90018214 C20.7697074,9.57397919 21.3877837,10.0695982 20.6981266,10.7208571 L20.6981266,10.7208571 L9.31131903,21.7783084 C9.00011954,22.0805066 8.50477635,22.0796317 8.19464634,21.776336 L8.19464634,21.776336 L3.32622145,17.0151965 C2.64833377,16.3522473 3.13346026,15.8230125 3.81201417,15.1607142 C4.49056808,14.4984159 5.10559485,13.953853 5.78348254,14.6168022 L5.78348254,14.6168022 L8.23528908,17.0145787 C8.54620858,17.3186465 9.04308334,17.3186417 9.35399693,17.0145678 L9.35399693,17.0145678 Z M18.2841962,2.28082219 C18.9738533,1.62956327 19.4365304,2.22638509 20.1031189,2.90018214 C20.7697074,3.57397919 21.3877837,4.06959823 20.6981266,4.72085715 L20.6981266,4.72085715 L9.31131903,15.7783084 C9.00011954,16.0805066 8.50477635,16.0796317 8.19464634,15.776336 L8.19464634,15.776336 L3.32622145,11.0151965 C2.64833377,10.3522473 3.13346026,9.82301249 3.81201417,9.16071421 C4.49056808,8.49841592 5.10559485,7.95385304 5.78348254,8.61680223 L5.78348254,8.61680223 L8.23528908,11.0145787 C8.54620858,11.3186465 9.04308334,11.3186417 9.35399693,11.0145678 L9.35399693,11.0145678 Z" transform="translate(94 -2)"/><path fill="#E7EFFF" fill-rule="nonzero" d="M8.844,20.33 C11.594,20.33 13.662,19.142 14.85,17.536 C15.444,16.744 15.84,15.908 16.06,15.028 L13.222,14.17 C12.716,15.908 11.286,17.36 8.844,17.36 C7.15,17.36 5.566,16.546 4.686,14.984 C4.224,14.214 4.004,13.29 4.004,12.212 C4.004,9.946 5.016,8.362 6.49,7.57 C7.216,7.196 7.986,6.998 8.8,6.998 C11.264,6.998 12.65,8.384 13.09,10.144 L15.95,9.242 C15.51,7.416 14.344,5.788 12.342,4.798 C11.352,4.314 10.164,4.072 8.8,4.072 C5.984,4.072 3.432,5.48 1.958,7.944 C1.232,9.198 0.858,10.606 0.858,12.212 C0.858,15.446 2.398,17.998 4.84,19.318 C6.05,20 7.392,20.33 8.844,20.33 Z M20.576,20 L20.576,13.642 C20.642,12.41 21.39,11.53 22.6,11.53 C23.942,11.53 24.602,12.388 24.602,13.686 L24.602,20 L27.528,20 L27.528,13.18 C27.528,10.65 26.142,8.89 23.502,8.89 C22.38,8.89 21.258,9.286 20.576,10.078 L20.576,4.072 L17.65,4.072 L17.65,20 L20.576,20 Z M34.772,20.33 C37.324,20.33 39.106,18.9 39.7,16.898 L37.258,16.172 C36.862,17.272 36.048,17.822 34.794,17.822 C33.32,17.822 32.132,16.766 32.066,15.358 L39.81,15.358 L39.8108148,15.3066667 C39.8124444,15.2528889 39.8173333,15.16 39.832,15.028 C39.854,14.852 39.854,14.654 39.854,14.456 C39.854,10.958 37.852,8.846 34.508,8.846 C32.66,8.846 30.9,9.836 29.932,11.574 C29.426,12.432 29.184,13.422 29.184,14.544 C29.184,16.898 30.284,18.702 32,19.626 C32.858,20.11 33.782,20.33 34.772,20.33 Z M36.972,13.356 L32.132,13.356 C32.198,12.278 33.144,11.222 34.552,11.222 C36.114,11.222 36.906,12.146 36.972,13.356 Z M46.548,20.33 C49.254,20.33 51.08,18.68 51.608,16.678 L49.034,15.82 C48.748,16.81 47.934,17.646 46.548,17.646 C44.986,17.646 43.776,16.458 43.776,14.588 C43.776,12.718 44.964,11.552 46.526,11.552 C47.846,11.552 48.638,12.322 48.924,13.378 L51.542,12.498 C51.036,10.474 49.21,8.846 46.46,8.846 C44.37,8.846 42.566,9.88 41.598,11.618 C41.092,12.498 40.85,13.488 40.85,14.588 C40.85,16.766 41.928,18.592 43.666,19.582 C44.524,20.088 45.492,20.33 46.548,20.33 Z M56.19,20 L56.19,17.14 L57.4,15.864 L60.26,20 L63.846,20 L59.424,13.73 L63.758,9.176 L59.93,9.176 L56.19,13.202 L56.19,4.072 L53.264,4.072 L53.264,20 L56.19,20 Z M67.988,20 L67.988,4.072 L65.062,4.072 L65.062,20 L67.988,20 Z M72.064,7.416 C73.054,7.416 73.868,6.602 73.868,5.634 C73.868,4.6 73.054,3.808 72.064,3.808 C71.074,3.808 70.26,4.644 70.26,5.634 C70.26,6.602 71.074,7.416 72.064,7.416 Z M73.538,20 L73.538,9.176 L70.612,9.176 L70.612,20 L73.538,20 Z M79.748,20.33 C81.53,20.33 82.85,19.582 83.488,18.504 C83.796,17.954 83.95,17.382 83.95,16.766 C83.95,15.116 82.828,13.884 80.738,13.444 L79.198,13.114 C78.582,13.004 78.208,12.674 78.208,12.146 C78.208,11.53 78.824,11.068 79.594,11.068 C80.716,11.068 81.266,11.75 81.376,12.52 L83.818,11.97 C83.708,11.068 83.158,10.034 81.926,9.352 C81.31,9.022 80.518,8.846 79.572,8.846 C78.054,8.846 76.756,9.528 76.052,10.606 C75.7,11.156 75.524,11.75 75.524,12.388 C75.524,13.972 76.536,15.182 78.56,15.622 L79.99,15.952 C80.76,16.106 81.156,16.458 81.156,17.008 C81.156,17.624 80.628,18.086 79.726,18.086 C78.516,18.086 77.812,17.382 77.746,16.436 L75.238,16.986 C75.348,17.954 75.942,19.076 77.262,19.78 C77.922,20.154 78.758,20.33 79.748,20.33 Z M89.94,20.154 C90.622,20.154 91.172,20.066 91.59,19.89 L91.59,17.47 C91.392,17.536 91.084,17.558 90.688,17.558 C89.808,17.558 89.412,17.206 89.412,16.304 L89.412,11.772 L91.59,11.772 L91.59,9.176 L89.412,9.176 L89.412,5.942 L86.772,5.942 L86.772,7.46 C86.772,8.494 86.178,9.176 85.1,9.176 L84.55,9.176 L84.55,11.772 L86.508,11.772 L86.508,16.81 C86.508,18.9 87.828,20.154 89.94,20.154 Z" transform="translate(0 -2)"/></g></svg>