<svg width="139" height="32" xmlns="http://www.w3.org/2000/svg"><g fill="none" fill-rule="evenodd"><path d="M12.48 25.714c3.196 0 5.6-1.38 6.98-3.247a8.086 8.086 0 001.406-2.914l-3.298-.997c-.588 2.02-2.25 3.707-5.088 3.707-1.968 0-3.809-.946-4.832-2.761-.536-.895-.792-1.969-.792-3.222 0-2.633 1.176-4.474 2.889-5.394a5.794 5.794 0 012.684-.665c2.864 0 4.474 1.611 4.986 3.656l3.323-1.048c-.511-2.122-1.866-4.014-4.193-5.164-1.15-.563-2.53-.844-4.116-.844-3.272 0-6.238 1.636-7.95 4.5-.844 1.457-1.279 3.093-1.279 4.96 0 3.758 1.79 6.723 4.627 8.257 1.407.793 2.966 1.176 4.653 1.176zm13.634-.383v-7.389c.077-1.431.946-2.454 2.352-2.454 1.56 0 2.327.997 2.327 2.505v7.338h3.4v-7.926c0-2.94-1.61-4.985-4.679-4.985-1.304 0-2.607.46-3.4 1.38V6.822h-3.4v18.51h3.4zm16.497.383c2.966 0 5.037-1.661 5.727-3.988l-2.838-.844c-.46 1.279-1.406 1.918-2.863 1.918-1.713 0-3.094-1.227-3.17-2.864h8.999c0-.025 0-.153.025-.383.026-.205.026-.435.026-.665 0-4.065-2.327-6.52-6.213-6.52-2.147 0-4.193 1.151-5.317 3.171-.589.997-.87 2.148-.87 3.451 0 2.736 1.279 4.832 3.273 5.906.997.563 2.07.818 3.221.818zm2.557-8.104h-5.625c.077-1.253 1.176-2.48 2.812-2.48 1.816 0 2.736 1.074 2.813 2.48zm11.128 8.104c3.144 0 5.266-1.917 5.88-4.244l-2.991-.997c-.333 1.15-1.279 2.122-2.89 2.122-1.814 0-3.22-1.38-3.22-3.553 0-2.174 1.38-3.529 3.195-3.529 1.534 0 2.455.895 2.787 2.122l3.042-1.022c-.588-2.352-2.71-4.244-5.906-4.244-2.428 0-4.525 1.201-5.65 3.221-.588 1.023-.869 2.173-.869 3.452 0 2.53 1.253 4.653 3.273 5.803.997.588 2.122.87 3.349.87zm11.205-.383v-3.324l1.406-1.483 3.323 4.807h4.168l-5.14-7.286 5.037-5.293h-4.448L67.5 17.431V6.82h-3.4v18.51h3.4zm13.71 0V6.82h-3.4v18.51h3.4zm4.737-14.624c1.15 0 2.096-.946 2.096-2.07a2.095 2.095 0 00-2.096-2.123c-1.15 0-2.097.972-2.097 2.122 0 1.125.946 2.071 2.097 2.071zm1.712 14.624V12.752h-3.4v12.579h3.4zm7.217.383c2.07 0 3.605-.869 4.346-2.122a4.05 4.05 0 00.537-2.02c0-1.917-1.304-3.349-3.732-3.86l-1.79-.383c-.716-.128-1.15-.512-1.15-1.125 0-.716.715-1.253 1.61-1.253 1.304 0 1.943.793 2.07 1.687l2.84-.638c-.128-1.048-.767-2.25-2.199-3.042-.716-.384-1.636-.588-2.735-.588-1.765 0-3.273.792-4.091 2.045a3.77 3.77 0 00-.614 2.071c0 1.84 1.176 3.247 3.528 3.758l1.662.384c.895.179 1.355.588 1.355 1.227 0 .716-.613 1.253-1.662 1.253-1.406 0-2.224-.819-2.3-1.918l-2.915.64c.128 1.124.818 2.428 2.352 3.246.767.435 1.739.64 2.889.64zm11.844-.204c.793 0 1.432-.103 1.917-.307v-2.812c-.23.076-.588.102-1.048.102-1.022 0-1.483-.41-1.483-1.457v-5.267h2.531v-3.017h-2.53V8.994h-3.068v1.764c0 1.202-.69 1.994-1.943 1.994h-.64v3.017h2.276v5.855c0 2.429 1.534 3.886 3.988 3.886z" fill="#E7EFFF" fill-rule="nonzero"/><path d="M129.494 12.13c.736-.69 1.23-.058 1.94.656.711.713 1.37 1.238.635 1.927l-12.106 11.67a.914.914 0 01-1.271-.002l-5.153-5.003c-.723-.702-.206-1.262.518-1.963.724-.702 1.38-1.278 2.103-.576l2.575 2.5a.914.914 0 001.274 0zm0-6.5c.736-.689 1.23-.057 1.94.657.711.713 1.37 1.238.635 1.927l-12.106 11.67a.914.914 0 01-1.271-.002l-5.153-5.003c-.723-.702-.206-1.262.518-1.963.724-.702 1.38-1.278 2.103-.576l2.575 2.5a.914.914 0 001.274 0z" fill="#FE2D5B"/></g></svg>