<?xml version="1.0" encoding="UTF-8"?>
<svg width="93px" height="34px" viewBox="0 0 93 34" version="1.1" xmlns="http://www.w3.org/2000/svg" xmlns:xlink="http://www.w3.org/1999/xlink">
    <!-- Generator: Sketch 63.1 (92452) - https://sketch.com -->
    <title>netlify-callout-vertical-color-accent</title>
    <desc>Created with Sketch.</desc>
    <defs>
        <radialGradient cx="50%" cy="0%" fx="50%" fy="0%" r="100%" gradientTransform="translate(0.500000,0.000000),scale(1.000000,0.984706),translate(-0.500000,-0.000000)" id="radialGradient-1">
            <stop stop-color="#20C6B7" offset="0%"></stop>
            <stop stop-color="#4D9ABF" offset="100%"></stop>
        </radialGradient>
    </defs>
    <g id="Desktop" stroke="none" stroke-width="1" fill="none" fill-rule="evenodd">
        <g id="Category-Listing" transform="translate(-158.000000, -2446.000000)">
            <g id="Footer-/-Large" transform="translate(0.000000, 2127.000000)">
                <rect id="bg" fill="#181C27" x="0" y="0" width="1440" height="440"></rect>
                <g id="Group" stroke-width="1" transform="translate(150.000000, 120.308786)">
                    <g id="Logo-/-A15-/-Horizontal" transform="translate(0.000000, 0.000000)" fill="#97ADDA">
                        <path d="M3.84323887,5.70122105 C3.9262834,5.70122105 4.00582996,5.73386883 4.06464777,5.79281619 L4.06464777,5.79281619 L6.15242105,7.88590121 C6.26396761,7.99731822 6.27523887,8.17493765 6.17807287,8.29931012 C4.46484211,10.5034235 3.55873684,13.146468 3.55873684,15.9418688 C3.55873684,22.8063223 9.13023482,28.3912939 15.9784939,28.3912939 C22.8270121,28.3912939 28.3979919,22.8063223 28.3979919,15.9418688 C28.3979919,13.146468 27.4918866,10.5042008 25.7782672,8.29931012 C25.6814899,8.17532632 25.6919838,7.99770688 25.803919,7.88628988 L25.803919,7.88628988 L27.8916923,5.79333441 C27.9507692,5.73425749 28.0300567,5.70122105 28.1132308,5.70122105 L28.1132308,5.70122105 L28.129166,5.70122105 C28.2177814,5.70627368 28.3001781,5.74786073 28.3561457,5.81665425 C30.6786721,8.66387692 31.9567287,12.2592777 31.9567287,15.9418688 C31.9567287,24.7723142 24.7884696,31.9566381 15.9784939,31.9566381 C7.16825911,31.9566381 -4.58976087e-14,24.7723142 -4.58976087e-14,15.9418688 C-4.58976087e-14,12.2600551 1.2785749,8.66387692 3.60032389,5.81626559 C3.65655061,5.74747206 3.7385587,5.70588502 3.82717409,5.70122105 L3.82717409,5.70122105 Z M17.494996,0.000340080972 L17.5095061,0.00155465587 C20.6602753,0.301473684 23.6247449,1.52434008 26.081749,3.53645344 C26.1497652,3.5922915 26.1913522,3.67481781 26.1956275,3.7634332 C26.2001619,3.85153036 26.1672551,3.93781377 26.1050688,4 L26.1050688,4 L24.0187206,6.09101215 C23.95783,6.15190283 23.8777652,6.18351417 23.7973117,6.18351417 C23.7292955,6.18351417 23.6608907,6.16123077 23.6037571,6.11666397 C22.788081,5.47977328 21.8959676,4.94782186 20.9477571,4.53234008 L20.9477571,4.53234008 L20.9477571,6.44003239 C24.4905587,8.30160324 26.6828826,11.9244696 26.6828826,15.9419595 C26.6828826,21.8582024 21.8806802,26.6706397 15.9785587,26.6706397 C10.075919,26.6706397 5.27384615,21.8582024 5.27384615,15.9419595 C5.27384615,13.641587 5.99119028,11.4468016 7.34892308,9.59598381 C7.4037247,9.52226721 7.48728745,9.47588664 7.57823482,9.46927935 C7.5860081,9.46850202 7.59365182,9.46824291 7.6014251,9.46824291 C7.68459919,9.46824291 7.76440486,9.5011498 7.82348178,9.56061538 L7.82348178,9.56061538 L9.88910121,11.631417 C9.99404049,11.7355789 10.0111417,11.8982996 9.93107692,12.0220243 C9.17447773,13.1907368 8.77531984,14.5461377 8.77531984,15.9419595 C8.77531984,19.922915 12.006413,23.1625587 15.9785587,23.1625587 C19.9507045,23.1625587 23.1817976,19.922915 23.1817976,15.9419595 C23.1817976,12.5204211 20.7574413,9.54442105 17.4179109,8.86581377 C17.2717733,8.8362753 17.166834,8.70775709 17.166834,8.55876923 L17.166834,8.55876923 L17.166834,0.313263158 C17.166834,0.224518219 17.2037571,0.140696356 17.2694413,0.0812307692 C17.3277409,0.0283724696 17.4023644,3.68216478e-15 17.4800972,3.68216478e-15 C17.4898138,3.68216478e-15 17.5003077,0.000388663968 17.5095061,0.00155465587 Z M61.4868858,9.96923077 C62.9105619,9.96923077 63.9105943,10.1872713 64.4868534,10.6185587 C65.0406996,11.0422024 65.4393393,11.6425587 65.6769425,12.4205344 C65.9479709,13.3704291 66.0819304,14.4746235 66.0819304,15.7288421 C66.0819304,16.9820243 66.0163757,17.9665101 65.8802138,18.6861862 C65.74457,19.4046964 65.5584,19.9828988 65.3262381,20.4143158 C65.090319,20.8453441 64.7710964,21.1797247 64.3639061,21.4117571 C63.9571045,21.643919 63.53657,21.7974413 63.0997117,21.8759514 C62.6644081,21.9495385 62.1525377,21.9871093 61.5613798,21.9871093 C60.9673717,21.9871093 60.4860761,21.965085 60.1173636,21.921166 C59.7483919,21.8790607 59.3744972,21.7892794 58.9921814,21.6562267 C58.6121976,21.5196761 58.301396,21.3192551 58.0637927,21.0540567 C57.823987,20.7889879 57.6059466,20.441004 57.4112259,20.0082915 C57.2157279,19.5753198 57.0755498,19.0324858 56.9874526,18.3806964 C56.899485,17.7252794 56.8566024,16.9487287 56.8566024,16.0535061 C56.8566024,15.1551741 56.906481,14.368 57.0053312,13.6904291 C57.1028858,13.0177814 57.2555012,12.4581053 57.4618818,12.0139919 C57.669817,11.5703968 57.892651,11.2097166 58.1377684,10.9354494 C58.3823676,10.6591093 58.693817,10.4506559 59.0741895,10.3112551 C59.6955336,10.0840162 60.4985134,9.96923077 61.4868858,9.96923077 Z M106.80561,10.0108955 L106.80561,12.4272194 L102.01429,12.4272194 L101.917772,14.6493409 C102.28467,14.3890656 102.856266,14.2589927 103.6288,14.2589927 C103.889723,14.2589927 104.200395,14.2680615 104.55965,14.2903449 C105.469124,14.3433328 106.152913,14.6444178 106.603116,15.1902316 C107.053189,15.7377296 107.278355,16.4537781 107.278355,17.3401911 L107.278355,17.3401911 L107.278355,18.9473166 C107.278355,19.4755109 107.185594,19.9429441 106.99476,20.3492275 C106.803796,20.7521425 106.552071,21.0642397 106.23531,21.2790413 C105.626921,21.722766 104.926938,21.9456 104.13484,21.9456 C103.01484,21.9456 102.142679,21.9234462 101.517966,21.8793976 C100.891699,21.8374219 100.069415,21.7293733 99.0486543,21.5565474 L99.0486543,21.5565474 L99.0486543,19.4490818 L103.512719,19.4490818 C104.013707,19.4490818 104.331375,19.3284664 104.46067,19.0915109 C104.55965,18.9052113 104.60616,18.6854866 104.60616,18.4266364 L104.60616,18.4266364 L104.60616,17.5990413 C104.60616,17.2853895 104.541513,17.0374219 104.409755,16.8539725 C104.28046,16.6706526 104.031197,16.5778915 103.661577,16.5778915 L103.661577,16.5778915 L102.487683,16.5778915 C101.901966,16.5778915 101.609043,16.8635595 101.609043,17.437098 L101.609043,17.437098 L99.0632939,17.437098 L99.4222899,10.0108955 L106.80561,10.0108955 Z M86.4650235,10.0197441 L91.6144324,10.2785943 L91.6144324,11.2191611 L86.4650235,11.2191611 C86.2033231,11.2191611 86.0056227,11.2695579 85.8682947,11.371647 C85.7336874,11.4764567 85.6581571,11.5798413 85.640149,11.6816713 C85.6246024,11.7851854 85.6152745,11.931064 85.6152745,12.1273393 L85.6152745,12.1273393 L85.6152745,15.3684081 L90.9641976,15.5299628 L90.9641976,16.4908696 L85.6152745,16.6491854 L85.6152745,19.8937522 C85.6152745,20.1665943 85.6770721,20.3655903 85.7958737,20.4926834 C85.917396,20.6228858 86.0280356,20.6966024 86.1388049,20.7134445 C86.2471126,20.7295093 86.4107401,20.7372826 86.6270964,20.7372826 L86.6270964,20.7372826 L91.6145619,20.7372826 L91.6145619,21.6623028 L86.6270964,21.9369587 L86.3840518,21.9369587 C85.0686834,21.9369587 84.409898,21.2579628 84.409898,19.8937522 L84.409898,19.8937522 L84.409898,12.1270802 C84.409898,11.3790316 84.5976227,10.8429344 84.9737198,10.5120518 C85.3467077,10.1827239 85.810902,10.0196146 86.3652664,10.0196146 L86.3652664,10.0196146 L86.4650235,10.0197441 Z M44.2421377,10.0440356 L48.4331012,21.9125377 L46.9977652,21.9125377 L45.9713036,18.6056551 L41.2117247,18.6056551 L40.1362915,21.9125377 L38.6518543,21.9125377 L43.0366316,10.0440356 L44.2421377,10.0440356 Z M55.9866559,10.0439838 L55.9866559,11.2435304 L52.4003239,11.2435304 L52.4003239,21.9124858 L51.1939109,21.9124858 L51.1939109,11.2435304 L47.7048745,11.2435304 L47.7048745,10.0439838 L55.9866559,10.0439838 Z M68.989396,10.0440486 L68.989396,19.8692146 C68.989396,20.2801619 69.1058656,20.5309798 69.3341409,20.6159676 C69.5070964,20.6834656 69.7298008,20.7131336 70.0016065,20.7131336 L70.0016065,20.7131336 L74.9892016,20.7131336 L74.9892016,21.9124211 L70.0016065,21.9124211 C69.3809101,21.9124211 68.8826429,21.8060567 68.5025296,21.5895709 C68.0217522,21.318413 67.7828534,20.7460405 67.7828534,19.8692146 L67.7828534,19.8692146 L67.7828534,10.0440486 L68.989396,10.0440486 Z M75.4782834,10.0439838 L78.558834,16.2706397 L81.9665101,10.0439838 L83.2874494,10.0439838 L79.1629474,17.696 L79.1629474,21.9124858 L77.9565344,21.9124858 L77.9565344,17.696 L74.1574737,10.0439838 L75.4782834,10.0439838 Z M97.6007773,10.0439838 L97.6007773,21.9124858 L94.9278057,21.9124858 L94.9278057,12.6217328 L92.7906721,13.0922753 L92.7906721,11.3737328 L94.9432227,10.0439838 L97.6007773,10.0439838 Z M14.3258688,0.0148210526 C14.4025652,0.0148210526 14.4778364,0.0428048583 14.5353587,0.0947562753 C14.6014316,0.154610526 14.639132,0.239339271 14.639132,0.327954656 L14.639132,0.327954656 L14.639132,16.0289425 C14.639132,16.0678089 14.6317474,16.1060275 14.6185328,16.1408777 C14.6224194,16.1784486 14.6278607,16.218481 14.634468,16.2601976 C14.6371887,16.2772988 14.639132,16.2951773 14.639132,16.3126672 L14.639132,16.3126672 L14.639132,20.5439223 C14.639132,20.6458818 14.5889943,20.7420113 14.5046543,20.8006996 C14.4514073,20.8381409 14.3889619,20.8571854 14.3258688,20.8571854 C14.2890753,20.8571854 14.2525409,20.8508372 14.2175611,20.8381409 C12.2404275,20.1101733 10.9032939,18.2186753 10.8687028,16.1118575 C10.8618364,16.085817 10.8585976,16.0578332 10.8585976,16.0289425 L10.8585976,16.0289425 L10.8585976,4.60027854 C9.96635466,5.0052664 9.12554494,5.51428664 8.35339919,6.11736356 C8.29626559,6.16218947 8.22786073,6.1838251 8.1602332,6.1838251 C8.07939109,6.1838251 7.99945587,6.15273198 7.93882429,6.09171174 L7.93882429,6.09171174 L5.85208745,3.99992227 C5.78912389,3.93786559 5.75608745,3.85158219 5.76075142,3.76335547 C5.76502672,3.67486964 5.8062251,3.59234332 5.87462996,3.53637571 C8.29004696,1.558983 11.2010105,0.34142834 14.2928324,0.0162461538 C14.303715,0.0148210526 14.3147271,0.0148210526 14.3258688,0.0148210526 Z M62.0726024,11.1756437 L62.0726024,14.4435304 L60.8658008,14.4435304 L60.8658008,11.1768097 C60.8415741,11.1773279 60.8157927,11.177587 60.7945457,11.1783644 C60.6363595,11.1831579 60.4364567,11.1989636 60.1909506,11.2269474 C59.9472583,11.2535061 59.7603109,11.299498 59.6295903,11.3570202 C59.498481,11.4166154 59.3459951,11.5047126 59.1736874,11.6143158 C58.9969749,11.7287126 58.8661247,11.8669474 58.7718089,12.0316113 C58.6815093,12.1917409 58.5811045,12.3954008 58.4705943,12.6367611 C58.3615093,12.8816194 58.2845538,13.1652146 58.2337684,13.489749 C58.1869992,13.8114332 58.1458008,14.1936194 58.1123757,14.6252955 C58.0786915,15.0581377 58.0639223,15.6678219 58.0639223,16.4579757 C58.0639223,17.2451498 58.117817,17.9494089 58.2180923,18.5651822 C58.3223838,19.1818623 58.5235822,19.6565506 58.8201328,19.9927449 C59.1214769,20.3281619 59.466481,20.5425749 59.8576065,20.6415547 C60.2484729,20.7372955 60.7532178,20.7860081 61.3739142,20.7860081 C61.9931854,20.7860081 62.4774607,20.7531012 62.8250559,20.6806802 C63.1699304,20.6099433 63.4859142,20.4815547 63.7696389,20.2920162 C64.0515498,20.1035142 64.2695903,19.8296356 64.4222057,19.4750445 C64.725234,18.7597733 64.8761652,17.6247449 64.8762947,16.067498 C64.8762947,14.3694251 64.7472583,13.2308988 64.486983,12.6444049 C64.3764729,12.3968259 64.2790478,12.1916113 64.191987,12.0316113 C64.1054445,11.8669474 63.976149,11.7288421 63.8031935,11.6143158 C63.6263514,11.5048421 63.4784,11.4166154 63.3522138,11.3570202 C63.2292664,11.299498 63.0445215,11.2535061 62.7984972,11.2269474 C62.5555822,11.1989636 62.3529587,11.1831579 62.1880356,11.1783644 C62.1531854,11.1773279 62.1134121,11.1765506 62.0726024,11.1756437 L62.0726024,11.1756437 Z M43.6253279,11.8738656 L41.6511741,17.4059789 L45.5459757,17.4059789 L43.6253279,11.8738656 Z" id="Combined-Shape"></path>
                    </g>
                    <text id="Top-class-outsource" font-family="Inter-Regular, Inter" font-size="18" font-weight="normal" line-spacing="26" fill="#97ADDA">
                        <tspan x="0" y="72">Top class outsource</tspan>
                        <tspan x="0" y="98">Design &amp; Development</tspan>
                    </text>
                    <g id="social-icons" transform="translate(0.000000, 139.000000)" fill="#63729C">
                        <g id="Icons-/-Social-/-Github" transform="translate(84.000000, 0.000000)">
                            <path d="M12.0000745,3 C16.970474,3 21,7.00213642 21,11.9394123 C21,15.8878119 18.4244835,19.2375564 14.8504161,20.4209512 C14.3942124,20.5087362 14.2322087,20.2299856 14.2322087,19.9920927 C14.2322087,19.7367811 14.2400447,18.9796643 14.2421343,18.0037681 L14.2426413,17.5388505 C14.2426413,16.7048191 13.954999,16.1607891 13.6321838,15.8833708 C15.6362906,15.662058 17.7417429,14.9060413 17.7417429,11.4725087 C17.7417429,10.4965115 17.3925481,9.69904492 16.8154751,9.07300331 C16.9089215,8.84769347 17.217131,7.93860822 16.7272449,6.70724995 C16.7272449,6.70724995 15.9725191,6.46698853 14.2547133,7.62358894 C13.5354585,7.4255176 12.7649348,7.32618586 12.0000745,7.32278105 C11.2352142,7.32618586 10.4652867,7.4255176 9.74737321,7.62358894 C8.02748085,6.46698853 7.27171186,6.70724995 7.27171186,6.70724995 C6.78301801,7.93860822 7.09107845,8.84769347 7.18452494,9.07300331 C6.60879321,9.69904492 6.25721383,10.4965115 6.25721383,11.4725087 C6.25721383,14.8978993 8.3586421,15.6644265 10.3576816,15.8904765 C10.1002939,16.1135659 9.8670503,16.5082282 9.78627199,17.0858622 C9.27268888,17.3142808 7.96995239,17.7093872 7.1672366,16.3427246 C7.1672366,16.3427246 6.69135997,15.4844155 5.78759677,15.4215005 C5.78759677,15.4215005 4.90946802,15.4101017 5.7260443,15.9649383 C5.7260443,15.9649383 6.31593459,16.239692 6.72534051,17.2729789 C6.72534051,17.2729789 7.25367833,18.8685042 9.75750776,18.327731 C9.76073691,18.9502198 9.767071,19.5429986 9.76909267,19.8466631 L9.76972883,19.9920927 C9.76972883,20.2282092 9.60459532,20.5048873 9.15480025,20.4221355 C5.57879528,19.240073 3,15.8891442 3,11.9394123 C3,7.00213642 7.03012213,3 12.0000745,3 Z" id="Combined-Shape"></path>
                        </g>
                        <g id="Icons-/-Social-/-Behance" transform="translate(112.000000, 0.000000)">
                            <path d="M17.6863275,12.5394 C17.6534025,12.07485 17.4981525,11.72295 17.2191525,11.4828 C16.9418025,11.2416 16.5956775,11.12055 16.1828775,11.12055 C15.7333275,11.12055 15.3866025,11.250075 15.1397775,11.5041 C14.8917525,11.75775 14.7371025,12.102825 14.6739525,12.5394 L17.6863275,12.5394 Z M19.4423775,12.365325 C19.4879025,12.670725 19.5080775,13.11375 19.4999775,13.692825 L14.6319525,13.692825 C14.6589525,14.36505 14.8907775,14.834775 15.3308775,15.10365 C15.5959275,15.272325 15.9175275,15.354675 16.2945525,15.354675 C16.6913775,15.354675 17.0153775,15.254175 17.2647525,15.047775 C17.4005025,14.9385 17.5202775,14.783925 17.6237775,14.5893 L19.4081775,14.5893 C19.3613025,14.985975 19.1464275,15.388725 18.7606275,15.7977 C18.1622775,16.44765 17.3233275,16.773825 16.2460275,16.773825 C15.3560025,16.773825 14.5714275,16.4988 13.8906525,15.950925 C13.2118275,15.401175 12.8710275,14.509425 12.8710275,13.27245 C12.8710275,12.1125 13.1770275,11.224875 13.7910525,10.6068375 C14.4073275,9.9875925 15.2026275,9.679575 16.1828775,9.679575 C16.7639775,9.679575 17.2878525,9.78324 17.7550275,9.992265 C18.2211525,10.2012975 18.6059775,10.530315 18.9094275,10.9824 C19.1835525,11.380425 19.3603275,11.840775 19.4423775,12.365325 L19.4423775,12.365325 Z M10.1835525,13.8837 C10.1835525,13.3986 9.9852975,13.063575 9.58974,12.883725 C9.3687,12.781575 9.0564825,12.729375 8.6563725,12.72555 L6.652905,12.72555 L6.652905,15.213 L8.62545,15.213 C9.03045,15.213 9.34428,15.1602 9.57054,15.04935 C9.97878,14.8458 10.1835525,14.458575 10.1835525,13.8837 L10.1835525,13.8837 Z M6.652905,11.18025 L8.6280525,11.18025 C9.0336975,11.18025 9.3621825,11.10285 9.6148125,10.948875 C9.86712,10.7948475 9.99312,10.5211575 9.99312,10.128105 C9.99312,9.6939 9.8264325,9.4056975 9.491745,9.267015 C9.204285,9.17067 8.83641,9.1209975 8.3900775,9.1209975 L6.652905,9.1209975 L6.652905,11.18025 Z M11.786625,12.649875 C12.029175,13.02525 12.150225,13.481625 12.150225,14.0169 C12.150225,14.570775 12.0135,15.0675 11.735475,15.506325 C11.5587,15.796875 11.33895,16.042275 11.07525,16.2396 C10.778025,16.467975 10.426095,16.6245 10.021755,16.70835 C9.61611,16.792125 9.1769475,16.83435 8.7039075,16.83435 L4.5,16.83435 L4.5,7.5 L9.00798,7.5 C10.1445,7.5186825 10.949925,7.8476925 11.425575,8.4942675 C11.7111,8.890815 11.8524,9.3666975 11.8524,9.9195975 C11.8524,10.4903175 11.70915,10.9468575 11.421,11.2938825 C11.2608,11.4882825 11.0238,11.6652825 10.7103,11.8249575 C11.185275,11.9989575 11.54565,12.2727075 11.786625,12.6498825 L11.786625,12.649875 Z M18.048,8.82114 L14.28885,8.82114 L14.28885,7.8873675 L18.048,7.8873675 L18.048,8.82114 Z" id="Shape"></path>
                        </g>
                        <g id="Icons-/-Social-/-Dribbble" transform="translate(140.000000, 0.000000)">
                            <path d="M15.3116925,16.8128325 C15.0149925,15.3600075 14.6416425,14.0499825 14.2316925,12.8808075 C14.6116425,12.8265075 15.0100425,12.7955325 15.4316925,12.7955325 L15.4466925,12.7955325 L15.4483425,12.7955325 L15.4483425,12.7955325 C16.1466675,12.7955325 16.9133175,12.8823825 17.7449925,13.0713825 C17.4566925,14.6184825 16.5616425,15.9510075 15.3116925,16.8128325 Z M11.9999925,17.8518825 C10.6982925,17.8518825 9.4966575,17.4211575 8.52333,16.6985325 C8.73,16.3575075 9.175005,15.7035075 9.88167,15.0271575 C10.6083675,14.3304825 11.6116425,13.6134825 12.9216675,13.1866575 C13.3666425,14.4350325 13.7699925,15.8622075 14.0766675,17.4684825 C13.4300175,17.7148575 12.7316925,17.8518825 11.9999925,17.8518825 L11.9999925,17.8518825 Z M6.148335,12.0003825 C6.148335,11.9728575 6.15,11.9446575 6.1516725,11.9158575 C6.3183375,11.9220075 6.5316525,11.9274825 6.7899975,11.9274825 L6.7916625,11.9274825 C7.9683375,11.9196825 10.021665,11.8213575 12.1033425,11.1645075 C12.2166675,11.4123825 12.3283425,11.6706825 12.4400175,11.9390325 C11.0499675,12.4038825 9.95499,13.1443575 9.1449975,13.8818325 C8.366655,14.5918575 7.840005,15.2948325 7.53165,15.7644825 C6.67167,14.7448575 6.148335,13.4350575 6.148335,12.0003825 Z M9.4149975,6.75867 C9.82167,7.238505 10.6349925,8.2935 11.5033425,9.9411825 C9.7366725,10.467 7.9583325,10.5903075 6.88167,10.590008 C6.8516625,10.590008 6.82167,10.590008 6.7916625,10.5897075 L6.7899975,10.5897075 C6.6083325,10.5897075 6.4533225,10.5870075 6.3233175,10.5828825 C6.743325,8.9030175 7.89333,7.5116775 9.4149975,6.75867 L9.4149975,6.75867 Z M11.9999925,6.148845 C13.3799925,6.148845 14.6466675,6.63135 15.6483675,7.434675 C14.8816425,8.3528475 13.8683175,9.0181875 12.7749675,9.4876725 C12.0066675,8.00151 11.2633425,6.938355 10.7566425,6.2883525 C11.1583425,6.1993425 11.5733175,6.148845 11.9999925,6.148845 Z M16.5950175,8.38851 C17.3266425,9.31767 17.7849675,10.4683425 17.8433175,11.7248325 C16.9966425,11.5453575 16.1966925,11.4578325 15.4499925,11.4578325 L15.4499925,11.4575325 L15.4449675,11.4575325 C14.8449675,11.4575325 14.2816425,11.5119825 13.7499675,11.6061825 C13.6199925,11.2898325 13.4900175,10.9861575 13.3583175,10.6951575 C14.5416675,10.1761875 15.6766425,9.437685 16.5950175,8.38851 L16.5950175,8.38851 Z M12,4.5 C7.8566625,4.5003525 4.5,7.8580125 4.5,12.000375 C4.5,16.142025 7.8566625,19.5 12,19.5 C16.1416425,19.5 19.5,16.142025 19.5,12.000375 C19.5,7.858005 16.1416425,4.500375 12,4.5 Z" id="Shape"></path>
                        </g>
                        <g id="Icons-/-Social-/-Medium" transform="translate(168.000000, 0.000000)">
                            <path d="M19.4466525,7.57014101 L14.9171025,14.9616535 L11.6789775,9.67747601 L14.2565775,5.48874101 C14.3751525,5.29614101 14.6210775,5.20781351 14.8344525,5.26938101 L19.4466525,7.57014101 Z M19.5000525,17.444266 C19.5000525,17.871691 19.1280525,18.032191 18.6692775,17.802841 L15.1377525,16.037041 L19.5000525,8.91836351 L19.5000525,17.4442885 L19.5000525,17.444266 Z M9.7411275,17.560966 C9.7411275,17.986591 9.429525,18.179116 9.0488475,17.988766 L4.915365,15.925816 C4.6869075,15.811591 4.5,15.509191 4.5,15.253741 L4.5,5.71239101 C4.5,5.37183851 4.749255,5.21781851 5.0538225,5.37012101 L9.5286075,7.60383101 L9.7411275,7.95063101 L9.7411275,17.560981 L9.7411275,17.560966 Z M14.4643725,15.700366 L10.5000225,13.718191 L10.5000225,9.21820601 L14.4643725,15.700366 Z" id="Shape"></path>
                        </g>
                        <g id="Icons-/-Social-/-Intagram">
                            <path d="M8.85,4.5 L15.15,4.5 C17.5524,4.5 19.5,6.4475625 19.5,8.85 L19.5,15.149985 C19.5,17.55246 17.5524,19.499985 15.15,19.499985 L8.85,19.499985 C6.4475625,19.499985 4.5,17.55246 4.5,15.149985 L4.5,8.85 C4.5,6.4475625 6.4475625,4.5 8.85,4.5 Z M8.7,5.999985 C7.2088275,5.999985 6,7.20882 6,8.699985 L6,15.299985 C6,16.791135 7.2088275,17.999985 8.7,17.999985 L15.3,17.999985 C16.79115,17.999985 18,16.791135 18,15.299985 L18,8.699985 C18,7.20882 16.79115,5.999985 15.3,5.999985 L8.7,5.999985 Z M15.9375,7.124985 C16.4553,7.124985 16.875,7.5447225 16.875,8.062485 C16.875,8.580255 16.4553,8.999985 15.9375,8.999985 C15.4197,8.999985 15,8.580255 15,8.062485 C15,7.5447225 15.4197,7.124985 15.9375,7.124985 Z M12,8.249985 C14.07105,8.249985 15.75,9.92892 15.75,11.999985 C15.75,14.071035 14.07105,15.749985 12,15.749985 C9.9289275,15.749985 8.25,14.071035 8.25,11.999985 C8.25,9.92892 9.9289275,8.249985 12,8.249985 Z M12,9.749985 C10.757325,9.749985 9.75,10.757385 9.75,11.999985 C9.75,13.24266 10.757325,14.249985 12,14.249985 C13.242675,14.249985 14.25,13.24266 14.25,11.999985 C14.25,10.757385 13.242675,9.749985 12,9.749985 Z" id="Shape"></path>
                        </g>
                        <g id="Icons-/-Social-/-Meetup" transform="translate(196.000000, 0.000000)">
                            <path d="M12,4.5 C7.8577773,4.5 4.5,7.8577773 4.5,12 C4.5,16.1422227 7.8577773,19.5 12,19.5 C16.1422227,19.5 19.5,16.1422227 19.5,12 C19.5,7.8577773 16.1422227,4.5 12,4.5 Z M15.9168653,15.0688908 C15.8232777,15.1702773 15.6744476,15.2474545 15.5241551,15.2867743 C15.1158471,15.3935225 14.6336114,15.2828748 14.2538995,15.1156846 C13.0431109,14.5830806 13.3103878,13.233698 13.8415295,12.3031846 C14.0009207,12.0237218 14.1581997,11.7424718 14.3166161,11.4595971 C14.441237,11.2370017 14.7107886,10.8618393 14.6050152,10.5895256 C14.4943674,10.3040511 14.1981694,10.3022639 14.0036828,10.5428943 C13.8165078,10.7745884 13.6587413,11.1066941 13.5295711,11.3762457 C13.3890273,11.669844 12.6872834,13.2120884 12.6872834,13.2120884 C12.5574632,13.4634424 12.3390923,13.8244692 12.1020364,14.0239926 C11.9250975,14.1729853 11.6020906,14.2166919 11.3895689,14.0623375 C11.2282279,13.9448657 11.1963821,13.7888865 11.2280654,13.6073982 C11.3742959,12.7691724 12.6460139,10.8182951 11.7687933,10.6810009 C11.4327881,10.6283579 11.3414753,11.002383 11.2378141,11.2410637 C11.0663995,11.6353986 10.9359294,12.0459814 10.7526538,12.4359294 C10.5419194,12.8832322 10.3807409,13.3493826 10.2699307,13.8304809 C10.1817049,14.2147422 10.0673202,14.7044519 9.62976603,14.8215988 C8.43197574,15.1420061 8.06802426,14.3510615 8.06802426,14.3510615 C7.87256282,13.728932 8.05795061,13.1693566 8.24642548,12.5709489 C8.39200607,12.108698 8.4787695,11.632149 8.66301993,11.182409 C8.9917136,10.3805784 9.31926993,8.70770147 10.5042244,8.81461222 C10.8065966,8.8417461 11.1448765,8.99463821 11.4061417,9.14704289 C11.6438475,9.28579939 11.8243609,9.35972704 12.100899,9.21040945 C12.3699632,9.06515381 12.4929593,8.79560225 12.8136915,8.70315208 C13.1571707,8.60420277 13.3831781,8.75059575 13.6402188,8.9572682 C14.0002708,9.24680459 14.0394281,9.11600953 14.336601,9.03996967 C14.5830806,8.9767656 14.8690425,8.94768198 15.1390815,8.99382582 C16.5289211,9.23185659 15.6437392,11.00612 15.3121209,11.719075 C15.0963497,12.1827881 14.0663995,14.0480394 14.9788778,14.2987435 C15.2541161,14.3742959 15.6089688,14.3398505 15.8382257,14.5372617 C16.0713821,14.737435 16.0483102,14.9270472 15.9168653,15.0688908 Z" id="Shape"></path>
                        </g>
                        <g id="Icons-/-Social-/-Twitter" transform="translate(224.000000, 0.000000)">
                            <path d="M20.1888225,7.509285 C19.611615,7.7652975 18.991215,7.938315 18.340215,8.0161125 C19.00464,7.6177575 19.51509,6.986985 19.75539,6.235335 C19.133415,6.60423 18.444615,6.872085 17.711415,7.0164 C17.124315,6.39084 16.28784,6 15.36204,6 C13.584465,6 12.14319,7.4411025 12.14319,9.2186625 C12.14319,9.470925 12.17169,9.716595 12.22659,9.9522 C9.55149,9.81795 7.179735,8.5365225 5.59224,6.5891325 C5.31516,7.0645125 5.15643,7.61742 5.15643,8.2073175 C5.15643,9.32403 5.7246525,10.3092225 6.588345,10.886475 C6.060765,10.869675 5.5643925,10.724925 5.130465,10.483845 C5.1301575,10.4972925 5.1301575,10.510725 5.1301575,10.5243 C5.1301575,12.08385 6.23967,13.384725 7.712115,13.68045 C7.44204,13.754025 7.1576775,13.7934 6.8641275,13.7934 C6.6567225,13.7934 6.455085,13.77315 6.2585175,13.73565 C6.66813,15.014325 7.85682,15.945 9.2653275,15.970875 C8.1637425,16.834275 6.775875,17.34885 5.26782,17.34885 C5.0080125,17.34885 4.751805,17.33355 4.5,17.303775 C5.924445,18.21705 7.616355,18.75 9.4340475,18.75 C15.354465,18.75 18.5920725,13.845375 18.5920725,9.5919 C18.5920725,9.45237 18.5889225,9.3135525 18.5826975,9.1754775 C19.2116475,8.72166 19.7573475,8.15478 20.1888225,7.5093 L20.1888225,7.509285 Z" id="Path"></path>
                        </g>
                        <g id="Icons-/-Social-/-Facebook" transform="translate(252.000000, 0.000000)">
                            <path d="M17.25,6 L17.25,8.25 L15.75,8.25 C15.336,8.25 15,8.58525 15,9 L15,10.5 L17.25,10.5 L17.25,12.7500225 L15,12.7500225 L15,18.0000225 L12.75,18.0000225 L12.75,12.7500225 L11.25,12.7500225 L11.25,10.5 L12.75,10.5 L12.75,8.625 C12.75,7.1745 13.92525,6 15.375,6 L17.25,6 Z M18,4.5 L6,4.5 C5.172,4.5 4.5075075,5.1712425 4.5075075,6 L4.5,18 C4.5,18.827625 5.172,19.5 6,19.5 L18,19.5 C18.828,19.5 19.5,18.827625 19.5,18 L19.5,6 C19.5,5.1712425 18.828,4.5 18,4.5 Z" id="Shape"></path>
                        </g>
                        <g id="Icons-/-Social-/-Linkedin" transform="translate(28.000000, 0.000000)">
                            <path d="M18.75,18.75 L15.75,18.75 L15.75,13.6875 C15.75,12.89355 14.859075,12.22935 14.065125,12.22935 C13.271175,12.22935 12.75,12.89355 12.75,13.6875 L12.75,18.75 L9.75,18.75 L9.75,9.75 L12.75,9.75 L12.75,11.25 C13.246725,10.4464275 14.5173,9.9279525 15.39375,9.9279525 C17.247375,9.9279525 18.75,11.45895 18.75,13.3125 L18.75,18.75 Z M8.25,18.75 L5.25,18.75 L5.25,9.75 L8.25,9.75 L8.25,18.75 Z M6.7500075,5.25 C7.578435,5.25 8.2500075,5.9215725 8.2500075,6.75 C8.2500075,7.5784275 7.578435,8.25 6.7500075,8.25 C5.92158,8.25 5.2500075,7.5784275 5.2500075,6.75 C5.2500075,5.9215725 5.92158,5.25 6.7500075,5.25 Z" id="Shape"></path>
                        </g>
                        <g id="Icons-/-Social-/-Youtube" transform="translate(56.000000, 0.000000)">
                            <path d="M10.1415,13.976238 L10.1409375,8.882913 L15.0043125,11.4383505 L10.1415,13.976238 L10.1415,13.976238 Z M20.82,8.000313 C20.82,8.000313 20.6439375,6.751203 20.1045,6.201138 C19.4199375,5.47886175 18.6526875,5.47546425 18.301125,5.433543 C15.78225,5.25 12.0039375,5.25 12.0039375,5.25 L11.9960625,5.25 C11.9960625,5.25 8.21775,5.25 5.698875,5.433543 C5.34675,5.47546312 4.5800625,5.47886212 3.8949375,6.201138 C3.3555,6.75119925 3.18,8.000313 3.18,8.000313 C3.18,8.000313 3,9.467523 3,10.9341667 L3,12.3096067 C3,13.7768167 3.18,15.2434605 3.18,15.2434605 C3.18,15.2434605 3.3555,16.4925705 3.8949375,17.0426355 C4.5800625,17.7649117 5.4795,17.7422505 5.88,17.8175955 C7.32,17.9569519 12,18.0000052 12,18.0000052 C12,18.0000052 15.78225,17.9943405 18.301125,17.8107975 C18.6526875,17.7683107 19.4199375,17.7649117 20.1045,17.0426362 C20.6439375,16.492575 20.82,15.2434612 20.82,15.2434612 C20.82,15.2434612 21,13.7768175 21,12.3096075 L21,10.9341675 C21,9.46752375 20.82,8.00031375 20.82,8.00031375 L20.82,8.00031375 L20.82,8.000313 Z" id="Shape"></path>
                        </g>
                    </g>
                </g>
                <g id="Group-2" stroke-width="1" transform="translate(735.000000, 120.103359)">
                    <text id="ATOLYE15" font-family="Inter-Medium, Inter" font-size="13" font-weight="400" line-spacing="14" letter-spacing="2" fill="#97ADDA">
                        <tspan x="0" y="13">ATOLYE15</tspan>
                    </text>
                    <text id="Get-to-Know-Us" font-family="Inter-Regular, Inter" font-size="18" font-weight="normal" line-spacing="26" fill="#79849E">
                        <tspan x="0" y="55">Get to Know Us</tspan>
                    </text>
                    <text id="Explore-Our-Events" font-family="Inter-Regular, Inter" font-size="18" font-weight="normal" line-spacing="26" fill="#79849E">
                        <tspan x="0" y="87">Explore Our Events</tspan>
                    </text>
                    <text id="Open-Positions" font-family="Inter-Regular, Inter" font-size="18" font-weight="normal" line-spacing="26" fill="#79849E">
                        <tspan x="0" y="119">Open Positions</tspan>
                    </text>
                    <text id="Contact-Us" font-family="Inter-Regular, Inter" font-size="18" font-weight="normal" line-spacing="26" fill="#79849E">
                        <tspan x="0" y="151">Contact Us</tspan>
                    </text>
                </g>
                <g id="Group-3" stroke-width="1" transform="translate(1027.000000, 122.294574)">
                    <text id="Checklist" font-family="Inter-Medium, Inter" font-size="13" font-weight="400" line-spacing="14" letter-spacing="2" fill="#97ADDA">
                        <tspan x="0" y="13">CHECKLIST</tspan>
                    </text>
                    <text id="Code-of-Conduct" font-family="Inter-Regular, Inter" font-size="18" font-weight="normal" line-spacing="26" fill="#79849E">
                        <tspan x="0" y="87">Code of Conduct</tspan>
                    </text>
                    <text id="About" font-family="Inter-Regular, Inter" font-size="18" font-weight="normal" line-spacing="26" fill="#79849E">
                        <tspan x="0" y="55">About</tspan>
                    </text>
                    <text id="Contributing" font-family="Inter-Regular, Inter" font-size="18" font-weight="normal" line-spacing="26" fill="#79849E">
                        <tspan x="0" y="119">Contributing</tspan>
                    </text>
                    <text id="Checklist-Checklist" font-family="Inter-Regular, Inter" font-size="18" font-weight="normal" line-spacing="26" fill="#79849E">
                        <tspan x="0" y="151">Checklist Checklist</tspan>
                    </text>
                    <text id="Improvement-Checklis" font-family="Inter-Regular, Inter" font-size="18" font-weight="normal" line-spacing="26" fill="#79849E">
                        <tspan x="0" y="183">Improvement Checklist</tspan>
                    </text>
                </g>
            </g>
            <g id="netlify-callout-vertical-color-accent" transform="translate(150.000000, 2438.000000)" fill-rule="nonzero">
                <rect id="Background" x="0" y="0" width="114" height="51" rx="4"></rect>
                <g id="Group" transform="translate(8.000000, 8.000000)">
                    <path d="M23.6161838,12.0243902 C23.7871091,12.1101766 23.9295469,12.2245585 24.0434971,12.353238 C24.0577409,12.3675357 24.0577409,12.3675357 24.0719847,12.3675357 L24.0862285,12.3675357 L27.3622974,10.9520606 C27.3765412,10.9377628 27.3907849,10.9234651 27.3907849,10.9091674 C27.3907849,10.8948696 27.3907849,10.8805719 27.3765412,10.8662742 L24.3141289,7.79226241 C24.2998851,7.77796468 24.2856414,7.77796468 24.2856414,7.77796468 L24.2713976,7.77796468 C24.2571538,7.77796468 24.24291,7.79226241 24.24291,7.82085786 L23.5734525,11.9814971 C23.5876962,11.9957948 23.60194,12.0243902 23.6161838,12.0243902 Z M16.8219017,9.23633305 C16.9785833,9.47939445 17.0782897,9.76534903 17.1067773,10.0513036 C17.1067773,10.0656013 17.1210211,10.0798991 17.1352648,10.0941968 L22.0066369,12.195963 L22.0208807,12.195963 C22.0351244,12.195963 22.0493682,12.195963 22.0493682,12.1816653 C22.191806,12.0672834 22.3627313,11.9814971 22.5479004,11.9243061 C22.5621442,11.9243061 22.576388,11.9100084 22.576388,11.881413 L23.3740396,6.86291001 C23.3740396,6.84861228 23.3740396,6.83431455 23.3597958,6.82001682 L20.3116273,3.74600505 C20.2973835,3.73170732 20.2973835,3.73170732 20.2831398,3.73170732 C20.268896,3.73170732 20.2546522,3.74600505 20.2546522,3.76030278 L16.8219017,9.16484441 C16.8076579,9.19343987 16.8076579,9.22203532 16.8219017,9.23633305 Z M33.4586343,16.9714045 L28.2311678,11.7098402 C28.2169241,11.6955425 28.2026803,11.6955425 28.2026803,11.6955425 L28.1884365,11.6955425 L24.6417358,13.2253995 C24.627492,13.2396972 24.6132482,13.253995 24.6132482,13.2682927 C24.6132482,13.2825904 24.627492,13.3111859 24.6417358,13.3111859 L33.3874154,17.0714886 L33.4016592,17.0714886 C33.415903,17.0714886 33.4301468,17.0714886 33.4301468,17.0571909 L33.4586343,17.0285955 C33.4871219,17.0285955 33.4871219,16.9857023 33.4586343,16.9714045 Z M32.5897639,17.8292683 L24.2001787,14.2262405 L24.1859349,14.2262405 C24.1716911,14.2262405 24.1574474,14.2262405 24.1432036,14.2405383 C23.9153031,14.5550883 23.5734525,14.7552565 23.1746267,14.8124474 C23.1603829,14.8124474 23.1318953,14.8267452 23.1318953,14.8553406 L22.2345373,20.4457527 C22.2345373,20.4600505 22.2345373,20.4743482 22.2487811,20.4886459 C22.5621442,20.7317073 22.7473133,21.0891505 22.7900447,21.489487 C22.7900447,21.5180824 22.8042884,21.5323802 22.832776,21.5323802 L27.9035609,22.6047098 L27.9178047,22.6047098 C27.9320485,22.6047098 27.9462923,22.6047098 27.9462923,22.5904121 L32.5897639,17.9150547 C32.6040077,17.9007569 32.6040077,17.8864592 32.6040077,17.8721615 C32.6040077,17.8578638 32.6040077,17.843566 32.5897639,17.8292683 Z M21.4796171,13.0538267 L16.8931206,11.0807401 L16.8788768,11.0807401 C16.8646331,11.0807401 16.8503893,11.0950378 16.8361455,11.1093356 C16.5227824,11.5954584 15.9957626,11.881413 15.4260115,11.881413 C15.3405488,11.881413 15.2550862,11.8671152 15.1553797,11.8528175 L15.1411359,11.8528175 C15.1268922,11.8528175 15.1126484,11.8671152 15.0984046,11.881413 L11.3238034,17.8149706 C11.3095597,17.8292683 11.3095597,17.8578638 11.3238034,17.8721615 C11.3380472,17.8864592 11.352291,17.8864592 11.3665348,17.8864592 L11.3807786,17.8864592 L21.4511295,13.5256518 C21.4653733,13.5113541 21.4796171,13.4970563 21.4796171,13.4827586 L21.4796171,13.4255677 L21.4796171,13.3540791 C21.4796171,13.2682927 21.4938609,13.1825063 21.5081047,13.1110177 C21.5081047,13.0824222 21.4938609,13.0681245 21.4796171,13.0538267 Z M27.0062029,23.4339781 L22.5479004,22.5046257 L22.5336567,22.5046257 C22.5194129,22.5046257 22.5051691,22.5189235 22.4909253,22.5189235 C22.32,22.7333894 22.1063433,22.9049622 21.8499553,23.0050463 C21.8357116,23.0050463 21.8214678,23.0336417 21.8214678,23.0479394 L20.7531844,29.7106812 C20.7531844,29.7392767 20.7674282,29.7535744 20.781672,29.7678722 L20.8101595,29.7678722 C20.8244033,29.7678722 20.8386471,29.7678722 20.8386471,29.7535744 L27.0204467,23.5340622 C27.0346905,23.5197645 27.0346905,23.5054668 27.0346905,23.491169 C27.0346905,23.4482759 27.0204467,23.4339781 27.0062029,23.4339781 Z M20.781672,22.9764508 C20.3543586,22.804878 20.0409955,22.4188394 19.9270453,21.9756098 C19.9270453,21.961312 19.9128015,21.9470143 19.884314,21.9327166 L11.6229228,20.2026913 C11.6229228,20.2026913 11.6229228,20.2026913 11.608679,20.2026913 C11.5944352,20.2026913 11.5801914,20.2169891 11.5659477,20.2312868 C11.5232163,20.3027754 11.4947288,20.3599664 11.4519974,20.4171573 C11.4377537,20.431455 11.4377537,20.4600505 11.4519974,20.4743482 L18.9727122,31.5121951 C18.986956,31.5264929 18.986956,31.5264929 19.0011997,31.5264929 C19.0154435,31.5264929 19.0296873,31.5264929 19.0296873,31.5121951 L19.4854882,31.0546678 C19.4854882,31.0403701 19.499732,31.0403701 19.499732,31.0260723 L20.781672,23.019344 C20.8101595,23.019344 20.8101595,22.9907485 20.781672,22.9764508 Z M11.7938481,19.1875526 C11.7938481,19.216148 11.8080919,19.2304458 11.8365795,19.2304458 L20.0267518,20.9461733 L20.0409955,20.9461733 C20.0552393,20.9461733 20.0694831,20.9318755 20.0837269,20.9175778 C20.3258711,20.4886459 20.7531844,20.2026913 21.2374729,20.1740959 C21.2659604,20.1740959 21.2802042,20.1597981 21.2802042,20.1312027 L22.1633184,14.626577 C22.1633184,14.6122792 22.1633184,14.5836838 22.1348309,14.5836838 C22.0778558,14.5407906 22.0208807,14.4978974 21.9496618,14.4264087 C21.935418,14.412111 21.9211742,14.412111 21.9211742,14.412111 L21.9069304,14.412111 L11.7796043,18.8015139 C11.7511168,18.8158116 11.7511168,18.8301093 11.7511168,18.8587048 C11.7653606,18.9730866 11.7938481,19.0731707 11.7938481,19.1875526 Z M8.36109764,20.5744323 C8.31836631,20.5172414 8.27563497,20.4600505 8.23290364,20.3885618 C8.21865986,20.3742641 8.20441608,20.3599664 8.1901723,20.3599664 L8.17592853,20.3599664 L4.6434716,21.8898234 C4.62922782,21.8898234 4.61498405,21.9041211 4.61498405,21.9184188 C4.61498405,21.9327166 4.61498405,21.9470143 4.62922782,21.961312 L6.35272495,23.6913373 C6.36696873,23.705635 6.38121251,23.705635 6.38121251,23.705635 C6.39545629,23.705635 6.40970006,23.6913373 6.42394384,23.6770395 L8.37534142,20.6030278 C8.37534142,20.6030278 8.37534142,20.58873 8.36109764,20.5744323 Z M10.6970772,21.1320437 C10.6828334,21.117746 10.6685897,21.1034483 10.6543459,21.1034483 L10.6401021,21.1034483 C10.3837141,21.2178301 10.1273261,21.275021 9.85669432,21.275021 C9.64303765,21.275021 9.44362476,21.2464256 9.22996809,21.1749369 L9.21572431,21.1749369 C9.20148054,21.1749369 9.18723676,21.1892347 9.17299298,21.2035324 L7.12188896,24.4348192 L7.10764518,24.4491169 C7.0934014,24.4634146 7.0934014,24.4920101 7.10764518,24.5063078 L16.5370262,33.9857023 C16.5512699,34 16.5655137,34 16.5655137,34 C16.5797575,34 16.5940013,34 16.5940013,33.9857023 L18.2462795,32.312868 C18.2605233,32.2985702 18.2605233,32.2699748 18.2462795,32.255677 L10.6970772,21.1320437 Z M9.37240587,17.4003364 C9.38664965,17.4146341 9.40089343,17.4289319 9.4151372,17.4289319 L9.42938098,17.4289319 C9.57181876,17.4003364 9.72850032,17.371741 9.8709381,17.371741 C10.0276197,17.371741 10.198545,17.4003364 10.3552265,17.4432296 L10.3694703,17.4432296 C10.3837141,17.4432296 10.3979579,17.4289319 10.4122017,17.4146341 L14.2295341,11.4095879 C14.2437779,11.3952902 14.2437779,11.3666947 14.2295341,11.352397 C13.9304148,11.0378469 13.7594895,10.6232128 13.7594895,10.1799832 C13.7594895,10.0513036 13.7737332,9.92262405 13.8022208,9.79394449 C13.8022208,9.76534903 13.787977,9.7510513 13.7737332,9.73675357 C13.2894448,9.52228764 9.00206765,7.6921783 9.00206765,7.67788057 L8.98782387,7.67788057 C8.97358009,7.67788057 8.95933631,7.67788057 8.95933631,7.6921783 L5.32717294,11.352397 C5.31292916,11.3666947 5.31292916,11.3952902 5.32717294,11.4095879 L9.37240587,17.4003364 Z M9.78547543,6.93439865 C9.78547543,6.93439865 14.1155839,8.79310345 14.300753,8.87888982 L14.3149968,8.87888982 C14.3292406,8.87888982 14.3292406,8.87888982 14.3434844,8.86459209 C14.6426037,8.6215307 15.0271857,8.47855341 15.4117677,8.47855341 C15.5969368,8.47855341 15.7821059,8.50714886 15.967275,8.56433978 L15.9815188,8.56433978 C15.9957626,8.56433978 16.0100064,8.55004205 16.0242502,8.53574432 L19.5424633,3.00252313 C19.5567071,2.9882254 19.5567071,2.95962994 19.5424633,2.94533221 L16.6224888,0.0142977292 C16.6082451,0 16.6082451,0 16.5940013,0 C16.5797575,0 16.5655137,0 16.5655137,0.0142977292 L9.78547543,6.84861228 C9.77123165,6.86291001 9.77123165,6.87720774 9.77123165,6.89150547 C9.75698787,6.92010093 9.77123165,6.92010093 9.78547543,6.93439865 Z M8.10470964,18.4440706 C8.11895341,18.4440706 8.13319719,18.4297729 8.14744097,18.4154752 C8.23290364,18.2439024 8.36109764,18.0866274 8.48929164,17.9436501 C8.50353542,17.9293524 8.50353542,17.9007569 8.48929164,17.8864592 C8.44656031,17.8292683 4.58649649,12.1673675 4.58649649,12.1530698 C4.57225271,12.1387721 4.57225271,12.1387721 4.54376516,12.1244743 C4.52952138,12.1244743 4.5152776,12.1244743 4.5152776,12.1387721 L0.0142437779,16.6568545 C0,16.6711522 0,16.68545 0,16.6997477 C0,16.7140454 0.0142437779,16.7283431 0.0427313338,16.7283431 L8.10470964,18.4440706 C8.09046586,18.4440706 8.09046586,18.4440706 8.10470964,18.4440706 Z M7.73437141,19.430614 C7.73437141,19.4020185 7.72012763,19.3877208 7.69164008,19.3877208 L0.697945118,17.9150547 C0.697945118,17.9150547 0.697945118,17.9150547 0.68370134,17.9150547 C0.669457562,17.9150547 0.655213784,17.9293524 0.640970006,17.9436501 C0.626726228,17.9579479 0.640970006,17.9865433 0.655213784,18.000841 L3.77460115,21.1463415 C3.78884493,21.1606392 3.8030887,21.1606392 3.8030887,21.1606392 L3.81733248,21.1606392 L7.69164008,19.4878049 C7.72012763,19.4592094 7.73437141,19.4449117 7.73437141,19.430614 Z" id="Combined-Shape-Copy" fill="url(#radialGradient-1)"></path>
                    <path d="M67.5018666,14.7649667 L69.7772159,14.7649667 L69.7772159,29.3120637 L67.5018666,29.3120637 L67.5018666,14.7649667 Z M44.2221988,18.869426 C42.9991985,18.869426 42.0179541,19.3301306 41.2642447,20.237579 L41.19314,19.0509157 L39.06,19.0509157 L39.06,29.298103 L41.3353493,29.298103 L41.3353493,22.0105937 C41.7904192,21.172949 42.473024,20.7541266 43.3831637,20.7541266 C44.0088848,20.7541266 44.4639547,20.9076948 44.7483733,21.228792 C45.032792,21.5359284 45.1607804,22.0245545 45.1607804,22.6667488 L45.1607804,29.298103 L47.4361297,29.298103 L47.4361297,22.5271413 C47.4076878,20.0979716 46.3411178,18.869426 44.2221988,18.869426 Z M54.0488637,18.869426 C53.1813868,18.869426 52.3992354,19.0927979 51.6881888,19.5395418 C50.9771421,19.9862856 50.4367466,20.6145192 50.0385605,21.4242424 C49.6545953,22.2339657 49.4555022,23.1414141 49.4555022,24.1605486 L49.4555022,24.4397635 C49.4555022,25.9614848 49.9105721,27.1900304 50.8064909,28.1114396 C51.7024097,29.0328488 52.8685262,29.4935534 54.3190614,29.4935534 C55.1580965,29.4935534 55.9260269,29.3260245 56.6086317,28.9909666 C57.2912365,28.6559087 57.831632,28.1812433 58.2298181,27.5669705 L57.0068178,26.3803071 C56.3526549,27.2319126 55.4993989,27.6646957 54.4612708,27.6646957 C53.7217822,27.6646957 53.0960612,27.4134023 52.6125494,26.9247762 C52.1148168,26.4361501 51.844619,25.7660343 51.7735144,24.9144288 L58.4004693,24.9144288 L58.4004693,23.9930196 C58.4004693,22.3596124 58.0165041,21.1031453 57.2770156,20.2096576 C56.4948642,19.3161698 55.4282942,18.869426 54.0488637,18.869426 Z M56.12512,23.2251786 L51.7877353,23.2251786 C51.8872818,22.4294161 52.1432586,21.8151433 52.5272238,21.3823602 C52.911189,20.9356163 53.4231426,20.7262051 54.0488637,20.7262051 C54.6745848,20.7262051 55.1723174,20.9216556 55.5278408,21.3125565 C55.8833641,21.7034573 56.0824572,22.2898087 56.1393409,23.0576497 L56.1393409,23.2251786 L56.12512,23.2251786 Z M63.5200053,27.3296378 C63.363575,27.1621089 63.2924703,26.8689332 63.2924703,26.4780324 L63.2924703,20.7541266 L65.0843079,20.7541266 L65.0843079,19.0509157 L63.2924703,19.0509157 L63.2924703,16.5659029 L61.017121,16.5659029 L61.017121,19.0509157 L59.3532718,19.0509157 L59.3532718,20.7541266 L61.017121,20.7541266 L61.017121,26.5617968 C61.017121,28.5163012 61.8988189,29.4935534 63.6479937,29.4935534 C64.1315054,29.4935534 64.6292381,29.4237497 65.1554126,29.2701815 L65.1554126,27.483206 C64.8852149,27.5530098 64.6150171,27.5809313 64.3590403,27.5809313 C63.9466333,27.594892 63.6764355,27.5111275 63.5200053,27.3296378 Z M73.3040074,19.0648764 L75.5793567,19.0648764 L75.5793567,29.3120637 L73.3040074,29.3120637 L73.3040074,19.0648764 Z M88.4919641,26.0173277 L86.3446032,19.0648764 L83.8843818,19.0648764 L87.453836,29.2562207 L87.1267545,30.1357477 C86.9561033,30.6383346 86.7285684,30.9873532 86.4299288,31.1967644 C86.1455102,31.4061756 85.7046612,31.5178615 85.1358239,31.5178615 L84.7091959,31.4899401 L84.7091959,33.2769155 C85.107382,33.3886015 85.4771263,33.4444444 85.8042078,33.4444444 C87.2831848,33.4444444 88.3355339,32.5788782 88.9612549,30.8617065 L93,19.0648764 L90.5682204,19.0648764 L88.4919641,26.0173277 Z M80.0447298,15.4909255 C79.4190087,16.1051983 79.1061482,16.9847253 79.1061482,18.1295064 L79.1061482,19.0648764 L77.5560664,19.0648764 L77.5560664,20.7680874 L79.1061482,20.7680874 L79.1061482,29.3120637 L81.3814975,29.3120637 L81.3814975,20.7680874 L83.4435328,20.7680874 L83.4435328,19.0648764 L81.3814975,19.0648764 L81.3814975,18.1574279 C81.3814975,17.0266075 81.921893,16.4681777 83.0169048,16.4681777 C83.3439863,16.4681777 83.6426259,16.4960992 83.8843818,16.5379814 L83.9412655,14.7370452 C83.4861956,14.6253593 83.0737886,14.5695163 82.6613815,14.5695163 C81.5521487,14.5555556 80.6704508,14.8766527 80.0447298,15.4909255 Z M75.5793567,14.5555556 L75.5793567,16.5659029 L73.3040074,16.5659029 L73.3040074,14.5555556 L75.5793567,14.5555556 Z" id="Combined-Shape" fill="#FFFFFF"></path>
                </g>
                <path d="M47,18.7088317 L47,13.0811682 L48.9325768,13.0811682 C49.6205775,13.0811682 50.187461,13.3008356 50.6332443,13.7401769 C51.0790276,14.1795182 51.3019159,14.7431808 51.3019159,15.4311816 L51.3019159,16.3626836 C51.3019159,17.0532611 51.0790276,17.6169237 50.6332443,18.0536882 C50.187461,18.4904527 49.6205775,18.7088317 48.9325768,18.7088317 L47,18.7088317 Z M48.1286248,13.9508278 L48.1286248,17.8430374 L48.8745995,17.8430374 C49.2791542,17.8430374 49.5960936,17.70647 49.8254272,17.4333311 C50.0547608,17.1601922 50.1694259,16.8033133 50.1694259,16.3626836 L50.1694259,15.4234513 C50.1694259,14.9879751 50.0547608,14.6336729 49.8254272,14.360534 C49.5960936,14.0873952 49.2791542,13.9508278 48.8745995,13.9508278 L48.1286248,13.9508278 Z M56.6358277,16.2351335 L54.3051401,16.2351335 L54.3051401,17.8430374 L57.0300734,17.8430374 L57.0300734,18.7088317 L53.1765153,18.7088317 L53.1765153,13.0811682 L57.0223431,13.0811682 L57.0223431,13.9508278 L54.3051401,13.9508278 L54.3051401,15.3654739 L56.6358277,15.3654739 L56.6358277,16.2351335 Z M59.84004,16.6680307 L59.84004,18.7088317 L58.7114151,18.7088317 L58.7114151,13.0811682 L60.9532042,13.0811682 C61.5999764,13.0811682 62.1088832,13.2460798 62.4799398,13.5759079 C62.8509964,13.905736 63.0365219,14.3399172 63.0365219,14.8784646 C63.0365219,15.417012 62.8509964,15.8499049 62.4799398,16.1771562 C62.1088832,16.5044075 61.5999764,16.6680307 60.9532042,16.6680307 L59.84004,16.6680307 Z M59.84004,15.7983711 L60.9532042,15.7983711 C61.2675716,15.7983711 61.5059203,15.7126944 61.6682576,15.5413384 C61.8305948,15.3699824 61.9117623,15.1516034 61.9117623,14.8861949 C61.9117623,14.6156328 61.831239,14.3921003 61.6701902,14.2155908 C61.5091413,14.0390812 61.2701484,13.9508278 60.9532042,13.9508278 L59.84004,13.9508278 L59.84004,15.7983711 Z M65.9856341,17.8430374 L68.4902535,17.8430374 L68.4902535,18.7088317 L64.8570092,18.7088317 L64.8570092,13.0811682 L65.9856341,13.0811682 L65.9856341,17.8430374 Z M74.4271293,16.4013351 C74.4271293,17.0919126 74.2087503,17.6626613 73.7719858,18.1135981 C73.3352213,18.5645349 72.7676936,18.79 72.0693857,18.79 C71.3762314,18.79 70.813213,18.5645349 70.3803136,18.1135981 C69.9474142,17.6626613 69.7309678,17.0919126 69.7309678,16.4013351 L69.7309678,15.3886649 C69.7309678,14.7006641 69.9467701,14.1305597 70.378381,13.6783344 C70.809992,13.2261092 71.3723662,13 72.0655205,13 C72.7638284,13 73.3320003,13.2261092 73.7700532,13.6783344 C74.2081061,14.1305597 74.4271293,14.7006641 74.4271293,15.3886649 L74.4271293,16.4013351 Z M73.2985045,15.3809346 C73.2985045,14.9428816 73.1889929,14.583426 72.9699665,14.3025567 C72.75094,14.0216875 72.449461,13.881255 72.0655205,13.881255 C71.68158,13.881255 71.3839662,14.0210433 71.1726701,14.3006242 C70.961374,14.580205 70.8557275,14.9403049 70.8557275,15.3809346 L70.8557275,16.4013351 C70.8557275,16.8471184 70.9626623,17.2104392 71.1765352,17.4913084 C71.3904081,17.7721776 71.688022,17.9126101 72.0693857,17.9126101 C72.455903,17.9126101 72.7573819,17.7721776 72.9738316,17.4913084 C73.1902813,17.2104392 73.2985045,16.8471184 73.2985045,16.4013351 L73.2985045,15.3809346 Z M78.0642388,15.6746862 L78.0874297,15.6746862 L79.3165485,13.0811682 L80.5533976,13.0811682 L78.6208209,16.7298731 L78.6208209,18.7088317 L77.4960612,18.7088317 L77.4960612,16.6718958 L75.5982708,13.0811682 L76.83512,13.0811682 L78.0642388,15.6746862 Z M85.0524363,17.2400734 C85.0524363,17.0236237 84.9757782,16.8496936 84.8224597,16.7182777 C84.6691412,16.5868618 84.4005157,16.4631781 84.0165752,16.3472229 C83.3466119,16.1539643 82.8402819,15.9246342 82.4975699,15.6592256 C82.1548579,15.3938171 81.9835044,15.0304963 81.9835044,14.5692523 C81.9835044,14.1080084 82.1799811,13.7311597 82.5729404,13.4386949 C82.9658996,13.1462302 83.4677203,13 84.0784176,13 C84.6968453,13 85.2005986,13.1642674 85.5896927,13.4928071 C85.9787867,13.8213468 86.166889,14.2265396 86.1540051,14.7083979 L86.1462748,14.7315888 L85.0524363,14.7315888 C85.0524363,14.4713338 84.9654712,14.260685 84.7915385,14.0996362 C84.6176057,13.9385873 84.3734593,13.8580641 84.0590919,13.8580641 C83.7576084,13.8580641 83.5244131,13.9250594 83.3594991,14.0590521 C83.1945851,14.1930447 83.1121293,14.3643981 83.1121293,14.5731175 C83.1121293,14.7637993 83.2003827,14.9203365 83.3768923,15.0427336 C83.5534018,15.1651308 83.8581017,15.2946121 84.2910011,15.4311816 C84.9120055,15.6038259 85.3822612,15.8318677 85.7017821,16.1153137 C86.0213031,16.3987597 86.1810612,16.7710991 86.1810612,17.2323431 C86.1810612,17.7142013 85.9910263,18.0942709 85.610951,18.3725634 C85.2308757,18.6508558 84.7290549,18.79 84.1054737,18.79 C83.4921996,18.79 82.9575254,18.6321744 82.501435,18.3165187 C82.0453446,18.0008629 81.8237447,17.5583072 81.8366286,16.9888384 L81.8443589,16.9656475 L82.9420625,16.9656475 C82.9420625,17.3006291 83.0444881,17.5460639 83.2493422,17.7019592 C83.4541964,17.8578546 83.7395707,17.935801 84.1054737,17.935801 C84.4121108,17.935801 84.6465944,17.8726708 84.8089317,17.7464085 C84.9712689,17.6201462 85.0524363,17.4513695 85.0524363,17.2400734 Z M90.985447,18.7088317 L90.985447,13.0811682 L92.8871025,13.0811682 C93.5493354,13.0811682 94.0659725,13.2100054 94.4370291,13.4676836 C94.8080857,13.7253618 94.9936112,14.1105849 94.9936112,14.6233645 C94.9936112,14.8836194 94.9246833,15.1161705 94.7868255,15.3210247 C94.6489676,15.5258788 94.4486258,15.6798393 94.1857941,15.7829105 C94.5233525,15.8550604 94.7765175,16.009665 94.9452967,16.246729 C95.114076,16.4837929 95.1984643,16.758216 95.1984643,17.0700066 C95.1984643,17.6085541 95.020669,18.0163237 94.6650731,18.2933277 C94.3094772,18.5703318 93.8057239,18.7088317 93.1537981,18.7088317 L90.985447,18.7088317 Z M92.1140718,16.2196729 L92.1140718,17.8430374 L93.1537981,17.8430374 C93.4527048,17.8430374 93.6807466,17.7779746 93.8379303,17.6478471 C93.995114,17.5177196 94.0737046,17.3251081 94.0737046,17.0700066 C94.0737046,16.794291 94.0067093,16.5836422 93.8727166,16.438054 C93.738724,16.2924659 93.527431,16.2196729 93.2388315,16.2196729 L92.1140718,16.2196729 Z M92.1140718,15.4389119 L92.925754,15.4389119 C93.2272375,15.4389119 93.4591444,15.37707 93.6214817,15.2533845 C93.7838189,15.129699 93.8649863,14.9493269 93.8649863,14.712263 C93.8649863,14.452008 93.7831747,14.2600407 93.6195491,14.1363551 C93.4559234,14.0126696 93.211777,13.9508278 92.8871025,13.9508278 L92.1140718,13.9508278 L92.1140718,15.4389119 Z M98.5109009,15.6746862 L98.5340918,15.6746862 L99.7632106,13.0811682 L101.00006,13.0811682 L99.067483,16.7298731 L99.067483,18.7088317 L97.9427233,18.7088317 L97.9427233,16.6718958 L96.0449329,13.0811682 L97.281782,13.0811682 L98.5109009,15.6746862 Z" id="DEPLOYS-BY" fill="#BCBCBC"></path>
            </g>
        </g>
    </g>
</svg>